<?xml version="1.0" encoding="UTF-8" standalone="no"?>
<svg
   xmlns:dc="http://purl.org/dc/elements/1.1/"
   xmlns:cc="http://creativecommons.org/ns#"
   xmlns:rdf="http://www.w3.org/1999/02/22-rdf-syntax-ns#"
   xmlns:svg="http://www.w3.org/2000/svg"
   xmlns="http://www.w3.org/2000/svg"
   xmlns:sodipodi="http://sodipodi.sourceforge.net/DTD/sodipodi-0.dtd"
   xmlns:inkscape="http://www.inkscape.org/namespaces/inkscape"
   version="1.1"
   id="svg4398"
   viewBox="0 0 672.40588 672.72545"
   height="7.4747272in"
   width="7.4711761in"
   sodipodi:docname="httpd-pb.svg"
   inkscape:version="0.92.3 (2405546, 2018-03-11)">
  <sodipodi:namedview
     pagecolor="#ffffff"
     bordercolor="#666666"
     borderopacity="1"
     objecttolerance="10"
     gridtolerance="10"
     guidetolerance="10"
     inkscape:pageopacity="0"
     inkscape:pageshadow="2"
     inkscape:window-width="3726"
     inkscape:window-height="2049"
     id="namedview407"
     showgrid="false"
     inkscape:zoom="2.2666494"
     inkscape:cx="233.08802"
     inkscape:cy="347.72901"
     inkscape:window-x="114"
     inkscape:window-y="55"
     inkscape:window-maximized="1"
     inkscape:current-layer="layer1"
     fit-margin-top="0"
     fit-margin-left="0"
     fit-margin-right="0"
     fit-margin-bottom="0"
     inkscape:snap-global="false" />
  <defs
     id="defs4400">
    <linearGradient
       gradientTransform="matrix(0.4345,-0.9318,-0.9318,-0.4345,6223.4761,-5052.7427)"
       y2="2496.6895"
       x2="-6636.2373"
       y1="2774.2998"
       x1="-6873.6479"
       gradientUnits="userSpaceOnUse"
       id="SVGID_1_">
      <stop
         id="stop3172"
         style="stop-color:#F59723"
         offset="0" />
      <stop
         id="stop3174"
         style="stop-color:#F69822"
         offset="0.3123" />
      <stop
         id="stop3176"
         style="stop-color:#E87726"
         offset="0.8383" />
    </linearGradient>
    <linearGradient
       gradientTransform="matrix(0.4345,-0.9318,-0.9318,-0.4345,6223.4761,-5052.7427)"
       y2="2804.9607"
       x2="-6936.9253"
       y1="2804.9607"
       x1="-8630.7197"
       gradientUnits="userSpaceOnUse"
       id="SVGID_2_">
      <stop
         id="stop3197"
         style="stop-color:#9C2063"
         offset="0.3233" />
      <stop
         id="stop3199"
         style="stop-color:#C82037"
         offset="0.6302" />
      <stop
         id="stop3201"
         style="stop-color:#CC2135"
         offset="0.7514" />
      <stop
         id="stop3203"
         style="stop-color:#E87726"
         offset="1" />
    </linearGradient>
    <linearGradient
       gradientTransform="matrix(0.4345,-0.9318,-0.9318,-0.4345,6223.4761,-5052.7427)"
       y2="2635.2839"
       x2="-7416.9194"
       y1="2635.2839"
       x1="-8426.2559"
       gradientUnits="userSpaceOnUse"
       id="SVGID_3_">
      <stop
         id="stop3208"
         style="stop-color:#282661"
         offset="0" />
      <stop
         id="stop3210"
         style="stop-color:#662E8C"
         offset="9.548389e-02" />
      <stop
         id="stop3212"
         style="stop-color:#9E2064"
         offset="0.7882" />
      <stop
         id="stop3214"
         style="stop-color:#CC2032"
         offset="0.9487" />
    </linearGradient>
    <linearGradient
       gradientTransform="matrix(0.4345,-0.9318,-0.9318,-0.4345,6223.4761,-5052.7427)"
       y2="2820.8604"
       x2="-6841.793"
       y1="2820.8604"
       x1="-8535.5879"
       gradientUnits="userSpaceOnUse"
       id="SVGID_4_">
      <stop
         id="stop3219"
         style="stop-color:#9C2063"
         offset="0.3233" />
      <stop
         id="stop3221"
         style="stop-color:#C82037"
         offset="0.6302" />
      <stop
         id="stop3223"
         style="stop-color:#CC2135"
         offset="0.7514" />
      <stop
         id="stop3225"
         style="stop-color:#E87726"
         offset="1" />
    </linearGradient>
    <linearGradient
       gradientTransform="matrix(0.4345,-0.9318,-0.9318,-0.4345,6223.4761,-5052.7427)"
       y2="2797.8789"
       x2="-7521.9175"
       y1="2797.8789"
       x1="-8412.0576"
       gradientUnits="userSpaceOnUse"
       id="SVGID_5_">
      <stop
         id="stop3230"
         style="stop-color:#282661"
         offset="0" />
      <stop
         id="stop3232"
         style="stop-color:#662E8C"
         offset="9.548389e-02" />
      <stop
         id="stop3234"
         style="stop-color:#9E2064"
         offset="0.7882" />
      <stop
         id="stop3236"
         style="stop-color:#CC2032"
         offset="0.9487" />
    </linearGradient>
    <linearGradient
       gradientTransform="matrix(0.4345,-0.9318,-0.9318,-0.4345,6223.4761,-5052.7427)"
       y2="2645.4897"
       x2="-6841.793"
       y1="2645.4897"
       x1="-8535.5879"
       gradientUnits="userSpaceOnUse"
       id="SVGID_6_">
      <stop
         id="stop3241"
         style="stop-color:#9C2063"
         offset="0.3233" />
      <stop
         id="stop3243"
         style="stop-color:#C82037"
         offset="0.6302" />
      <stop
         id="stop3245"
         style="stop-color:#CC2135"
         offset="0.7514" />
      <stop
         id="stop3247"
         style="stop-color:#E87726"
         offset="1" />
    </linearGradient>
    <linearGradient
       gradientTransform="matrix(0.4345,-0.9318,-0.9318,-0.4345,6223.4761,-5052.7427)"
       y2="2654.2649"
       x2="-6946.8647"
       y1="2654.2649"
       x1="-8640.6592"
       gradientUnits="userSpaceOnUse"
       id="SVGID_7_">
      <stop
         id="stop3252"
         style="stop-color:#9C2063"
         offset="0.3233" />
      <stop
         id="stop3254"
         style="stop-color:#C82037"
         offset="0.6302" />
      <stop
         id="stop3256"
         style="stop-color:#CC2135"
         offset="0.7514" />
      <stop
         id="stop3258"
         style="stop-color:#E87726"
         offset="1" />
    </linearGradient>
    <linearGradient
       gradientTransform="matrix(0.4345,-0.9318,-0.9318,-0.4345,6223.4761,-5052.7427)"
       y2="2593.446"
       x2="-6841.7925"
       y1="2593.446"
       x1="-8535.5889"
       gradientUnits="userSpaceOnUse"
       id="SVGID_8_">
      <stop
         id="stop3267"
         style="stop-color:#9C2063"
         offset="0.3233" />
      <stop
         id="stop3269"
         style="stop-color:#C82037"
         offset="0.6302" />
      <stop
         id="stop3271"
         style="stop-color:#CC2135"
         offset="0.7514" />
      <stop
         id="stop3273"
         style="stop-color:#E87726"
         offset="1" />
    </linearGradient>
    <linearGradient
       gradientTransform="matrix(0.4345,-0.9318,-0.9318,-0.4345,6223.4761,-5052.7427)"
       y2="2599.3242"
       x2="-6841.7925"
       y1="2599.3242"
       x1="-8535.5889"
       gradientUnits="userSpaceOnUse"
       id="SVGID_9_">
      <stop
         id="stop3282"
         style="stop-color:#9C2063"
         offset="0.3233" />
      <stop
         id="stop3284"
         style="stop-color:#C82037"
         offset="0.6302" />
      <stop
         id="stop3286"
         style="stop-color:#CC2135"
         offset="0.7514" />
      <stop
         id="stop3288"
         style="stop-color:#E87726"
         offset="1" />
    </linearGradient>
    <linearGradient
       gradientTransform="matrix(0.4345,-0.9318,-0.9318,-0.4345,6223.4761,-5052.7427)"
       y2="2600.5515"
       x2="-7209.6543"
       y1="2600.5515"
       x1="-7584.0386"
       gradientUnits="userSpaceOnUse"
       id="SVGID_10_">
      <stop
         id="stop3297"
         style="stop-color:#9C2063"
         offset="0.3233" />
      <stop
         id="stop3299"
         style="stop-color:#C82037"
         offset="0.6302" />
      <stop
         id="stop3301"
         style="stop-color:#CC2135"
         offset="0.7514" />
      <stop
         id="stop3303"
         style="stop-color:#E87726"
         offset="1" />
    </linearGradient>
  </defs>
  <metadata
     id="metadata4403">
    <rdf:RDF>
      <cc:Work
         rdf:about="">
        <dc:format>image/svg+xml</dc:format>
        <dc:type
           rdf:resource="http://purl.org/dc/dcmitype/StillImage" />
        <dc:title></dc:title>
      </cc:Work>
    </rdf:RDF>
  </metadata>
  <g
     transform="translate(-66.288143,-315.26372)"
     id="layer1">
    <g
       transform="matrix(0.15798837,0.04233286,-0.04233286,0.15798837,370.6774,441.22301)"
       id="g3169">
      <linearGradient
         gradientTransform="matrix(0.4345,-0.9318,-0.9318,-0.4345,6223.4761,-5052.7427)"
         y2="2496.6895"
         x2="-6636.2373"
         y1="2774.2998"
         x1="-6873.6479"
         gradientUnits="userSpaceOnUse"
         id="linearGradient4274">
        <stop
           id="stop4276"
           style="stop-color:#F59723"
           offset="0" />
        <stop
           id="stop4278"
           style="stop-color:#F69822"
           offset="0.3123" />
        <stop
           id="stop4280"
           style="stop-color:#E87726"
           offset="0.8383" />
      </linearGradient>
      <path
         style="fill:url(#SVGID_1_)"
         id="path3178"
         d="m 736.1,8.1 c -27.1,16 -72.2,61.3 -125.8,127 l 49.3,93.2 C 694.3,178.8 729.5,134.1 765,96 c 2.8,-3 4.1,-4.4 4.1,-4.4 -1.3,1.4 -2.8,3 -4.1,4.4 -11.5,12.6 -46.4,53.4 -99,134.2 50.7,-2.5 128.5,-12.9 192,-23.7 19,-105.9 -18.5,-154.3 -18.5,-154.3 0,0 -47.6,-77 -103.4,-44.1 z"
         inkscape:connector-curvature="0" />
      <path
         style="fill:none"
         id="path3180"
         d="m 652.5,539.9 c 0.3,-0.1 0.7,-0.1 1.1,-0.2 l -7.1,0.8 c -0.4,0.2 -0.8,0.4 -1.2,0.6 2.3,-0.5 4.8,-0.9 7.2,-1.2 z"
         inkscape:connector-curvature="0" />
      <path
         style="fill:none"
         id="path3182"
         d="m 602,706.9 c -4,0.9 -8.1,1.6 -12.3,2.3 4.2,-0.7 8.3,-1.5 12.3,-2.3 z"
         inkscape:connector-curvature="0" />
      <path
         style="fill:none"
         id="path3184"
         d="m 259.4,1081.4 c 0.5,-1.3 1,-2.8 1.5,-4.1 10.9,-28.7 21.7,-56.6 32.3,-83.8 11.9,-30.5 23.7,-60 35.5,-88.6 12.3,-30.1 24.5,-59.3 36.4,-87.5 12.5,-29.5 24.9,-58 37.1,-85.4 9.9,-22.3 19.6,-43.9 29.2,-64.8 3.2,-7 6.4,-13.9 9.6,-20.7 6.3,-13.6 12.5,-26.8 18.7,-39.8 5.7,-11.9 11.3,-23.6 17,-35.2 1.9,-3.8 3.7,-7.6 5.6,-11.4 0.3,-0.6 0.6,-1.2 0.9,-1.9 l -6.1,0.6 -4.8,-9.5 c -0.5,0.9 -0.9,1.9 -1.4,2.8 -8.6,17.3 -17.3,34.6 -25.8,52.1 -4.9,10.2 -9.8,20.4 -14.7,30.5 -13.5,28.3 -26.7,57 -39.8,85.6 -13.2,29.1 -26.1,58.3 -38.9,87.6 -12.4,28.8 -24.7,57.6 -36.6,86.3 -11.9,28.7 -23.6,57.3 -35,85.6 -11.9,29.6 -23.4,59 -34.6,88 -2.6,6.6 -5,13.1 -7.6,19.6 -9,23.4 -17.8,46.6 -26.3,69.4 l 7.6,15 6.8,-0.7 c 0.2,-0.7 0.5,-1.3 0.7,-2.1 11.1,-29.8 22,-59.1 32.7,-87.6 z"
         inkscape:connector-curvature="0" />
      <path
         style="fill:none"
         id="path3186"
         d="M 586.6,709.6 Z"
         inkscape:connector-curvature="0" />
      <path
         style="fill:#bd202e"
         id="path3188"
         d="m 570.2,791 c -6.3,1.1 -12.7,2.3 -19.4,3.4 0,0 -0.1,0 -0.1,0.1 3.4,-0.5 6.7,-1 10,-1.5 3.1,-0.7 6.3,-1.3 9.5,-2 z"
         inkscape:connector-curvature="0" />
      <path
         style="opacity:0.35;fill:#bd202e"
         id="path3190"
         d="m 570.2,791 c -6.3,1.1 -12.7,2.3 -19.4,3.4 0,0 -0.1,0 -0.1,0.1 3.4,-0.5 6.7,-1 10,-1.5 3.1,-0.7 6.3,-1.3 9.5,-2 z"
         enable-background="new    "
         inkscape:connector-curvature="0" />
      <path
         style="fill:#bd202e"
         id="path3192"
         d="m 586.7,709.5 c 0,0 0,0.1 0,0 -0.1,0 -0.1,0 -0.1,0.1 1,-0.1 2.1,-0.3 3.1,-0.5 4.2,-0.6 8.3,-1.3 12.3,-2.3 -5,0.9 -10,1.8 -15.3,2.7 z"
         inkscape:connector-curvature="0" />
      <path
         style="opacity:0.35;fill:#bd202e"
         id="path3194"
         d="m 586.7,709.5 c 0,0 0,0.1 0,0 -0.1,0 -0.1,0 -0.1,0.1 1,-0.1 2.1,-0.3 3.1,-0.5 4.2,-0.6 8.3,-1.3 12.3,-2.3 -5,0.9 -10,1.8 -15.3,2.7 z"
         enable-background="new    "
         inkscape:connector-curvature="0" />
      <linearGradient
         gradientTransform="matrix(0.4345,-0.9318,-0.9318,-0.4345,6223.4761,-5052.7427)"
         y2="2804.9607"
         x2="-6936.9253"
         y1="2804.9607"
         x1="-8630.7197"
         gradientUnits="userSpaceOnUse"
         id="linearGradient4291">
        <stop
           id="stop4293"
           style="stop-color:#9C2063"
           offset="0.3233" />
        <stop
           id="stop4295"
           style="stop-color:#C82037"
           offset="0.6302" />
        <stop
           id="stop4297"
           style="stop-color:#CC2135"
           offset="0.7514" />
        <stop
           id="stop4299"
           style="stop-color:#E87726"
           offset="1" />
      </linearGradient>
      <path
         style="fill:url(#SVGID_2_)"
         id="path3205"
         d="m 514,469.2 c 15,-28.1 30.2,-55.5 45.5,-82.1 15.9,-27.8 32.1,-54.6 48.4,-80.6 0.9,-1.5 2,-3.1 2.9,-4.6 16.1,-25.5 32.4,-50.1 48.7,-73.5 l -49.3,-93.2 c -3.7,4.5 -7.4,9.1 -11.2,13.9 -14.3,17.8 -29,36.8 -44.2,57.1 -17.1,22.8 -34.6,47.2 -52.5,72.8 -16.4,23.6 -33.2,48.3 -50,74 -14.3,21.8 -28.5,44.2 -42.7,67.2 -0.5,0.8 -1,1.7 -1.5,2.6 l 64.3,127 C 486,522.3 500,495.4 514,469.2 Z"
         inkscape:connector-curvature="0" />
      <linearGradient
         gradientTransform="matrix(0.4345,-0.9318,-0.9318,-0.4345,6223.4761,-5052.7427)"
         y2="2635.2839"
         x2="-7416.9194"
         y1="2635.2839"
         x1="-8426.2559"
         gradientUnits="userSpaceOnUse"
         id="linearGradient4302">
        <stop
           id="stop4304"
           style="stop-color:#282661"
           offset="0" />
        <stop
           id="stop4306"
           style="stop-color:#662E8C"
           offset="9.548389e-02" />
        <stop
           id="stop4308"
           style="stop-color:#9E2064"
           offset="0.7882" />
        <stop
           id="stop4310"
           style="stop-color:#CC2032"
           offset="0.9487" />
      </linearGradient>
      <path
         style="fill:url(#SVGID_3_)"
         id="path3216"
         d="m 221.2,1184.4 c -8.5,23.3 -17.1,47.2 -25.6,71.5 -0.1,0.3 -0.2,0.7 -0.4,1 -1.2,3.4 -2.5,6.9 -3.6,10.3 -5.8,16.4 -10.8,31.2 -22.3,64.7 18.9,8.6 34.1,31.4 48.5,57.2 -1.5,-26.7 -12.5,-51.8 -33.6,-71.2 93.3,4.2 173.7,-19.4 215.3,-87.6 3.7,-6.1 7.1,-12.4 10.2,-19.3 -18.9,24 -42.4,34.1 -86.5,31.7 -0.1,0 -0.2,0.1 -0.3,0.1 0.1,0 0.2,-0.1 0.3,-0.1 65,-29.1 97.5,-57 126.4,-103.2 6.8,-11 13.5,-22.9 20.3,-36.2 -56.8,58.3 -122.5,74.9 -191.8,62.3 l -52,5.7 c -1.7,4.4 -3.2,8.7 -4.9,13.1 z"
         inkscape:connector-curvature="0" />
      <linearGradient
         gradientTransform="matrix(0.4345,-0.9318,-0.9318,-0.4345,6223.4761,-5052.7427)"
         y2="2820.8604"
         x2="-6841.793"
         y1="2820.8604"
         x1="-8535.5879"
         gradientUnits="userSpaceOnUse"
         id="linearGradient4313">
        <stop
           id="stop4315"
           style="stop-color:#9C2063"
           offset="0.3233" />
        <stop
           id="stop4317"
           style="stop-color:#C82037"
           offset="0.6302" />
        <stop
           id="stop4319"
           style="stop-color:#CC2135"
           offset="0.7514" />
        <stop
           id="stop4321"
           style="stop-color:#E87726"
           offset="1" />
      </linearGradient>
      <path
         style="fill:url(#SVGID_4_)"
         id="path3227"
         d="m 245.5,1068.1 c 11.2,-29 22.8,-58.4 34.6,-88 11.4,-28.4 23,-57 35,-85.6 12,-28.6 24.2,-57.5 36.6,-86.3 12.6,-29.3 25.6,-58.5 38.9,-87.6 13.1,-28.8 26.3,-57.4 39.8,-85.6 4.8,-10.2 9.8,-20.4 14.7,-30.5 8.5,-17.5 17.1,-34.9 25.8,-52.1 0.5,-0.9 0.9,-1.9 1.4,-2.8 L 408,422.6 c -1,1.7 -2.1,3.5 -3.2,5.1 -15,24.5 -29.9,49.5 -44.5,75 -14.8,25.8 -29.3,52.1 -43.5,78.8 -11.9,22.5 -23.6,45.1 -35.1,68.1 -2.3,4.6 -4.5,9.3 -6.8,13.9 -14,28.9 -26.6,56.6 -38.1,83.5 -13,30.3 -24.4,59.3 -34.3,86.8 -6.6,18.1 -12.5,35.5 -18,52.3 -4.5,14.3 -8.7,28.7 -12.9,43 -9.6,33.6 -17.9,67.2 -24.7,100.6 l 64.6,127.5 c 8.5,-22.8 17.3,-46 26.3,-69.4 2.7,-6.7 5.1,-13.3 7.7,-19.7 z"
         inkscape:connector-curvature="0" />
      <linearGradient
         gradientTransform="matrix(0.4345,-0.9318,-0.9318,-0.4345,6223.4761,-5052.7427)"
         y2="2797.8789"
         x2="-7521.9175"
         y1="2797.8789"
         x1="-8412.0576"
         gradientUnits="userSpaceOnUse"
         id="linearGradient4324">
        <stop
           id="stop4326"
           style="stop-color:#282661"
           offset="0" />
        <stop
           id="stop4328"
           style="stop-color:#662E8C"
           offset="9.548389e-02" />
        <stop
           id="stop4330"
           style="stop-color:#9E2064"
           offset="0.7882" />
        <stop
           id="stop4332"
           style="stop-color:#CC2032"
           offset="0.9487" />
      </linearGradient>
      <path
         style="fill:url(#SVGID_5_)"
         id="path3238"
         d="m 146.2,1034 c -8.1,40.8 -13.9,81.4 -16.8,121.8 -0.1,1.4 -0.2,2.8 -0.3,4.2 -20.2,-32.3 -74.1,-63.8 -74,-63.5 38.7,56 68,111.6 72.3,166.2 -20.7,4.2 -49,-1.9 -81.7,-13.9 34.1,31.4 59.7,40 69.8,42.4 -31.4,2 -64,23.5 -96.9,48.3 48.1,-19.6 87,-27.4 114.8,-21.1 -44.2,125 -88.4,263 -132.7,409.6 13.6,-4 21.7,-13.2 26.2,-25.5 7.9,-26.5 60.2,-200.7 142.3,-429.4 2.4,-6.5 4.7,-13.1 7.1,-19.6 0.6,-1.9 1.3,-3.7 2,-5.4 8.6,-24 17.7,-48.5 26.9,-73.5 2.1,-5.7 4.2,-11.4 6.4,-17.1 0,-0.1 0.1,-0.2 0.1,-0.3 L 147,1029.7 c -0.2,1.3 -0.5,2.8 -0.8,4.3 z"
         inkscape:connector-curvature="0" />
      <linearGradient
         gradientTransform="matrix(0.4345,-0.9318,-0.9318,-0.4345,6223.4761,-5052.7427)"
         y2="2645.4897"
         x2="-6841.793"
         y1="2645.4897"
         x1="-8535.5879"
         gradientUnits="userSpaceOnUse"
         id="linearGradient4335">
        <stop
           id="stop4337"
           style="stop-color:#9C2063"
           offset="0.3233" />
        <stop
           id="stop4339"
           style="stop-color:#C82037"
           offset="0.6302" />
        <stop
           id="stop4341"
           style="stop-color:#CC2135"
           offset="0.7514" />
        <stop
           id="stop4343"
           style="stop-color:#E87726"
           offset="1" />
      </linearGradient>
      <path
         style="fill:url(#SVGID_6_)"
         id="path3249"
         d="m 482.3,560.2 c -1.9,3.8 -3.7,7.6 -5.6,11.4 -5.6,11.5 -11.2,23.2 -17,35.2 -6.2,13 -12.4,26.2 -18.7,39.8 -3.2,6.8 -6.4,13.7 -9.6,20.7 -9.6,20.9 -19.3,42.5 -29.2,64.8 -12.1,27.3 -24.6,55.8 -37.1,85.4 -11.9,28.2 -24.2,57.3 -36.4,87.5 -11.7,28.6 -23.5,58.2 -35.5,88.6 -10.7,27.1 -21.5,55.1 -32.3,83.8 -0.5,1.3 -1,2.8 -1.5,4.1 -10.8,28.5 -21.7,57.8 -32.6,87.8 -0.2,0.7 -0.5,1.3 -0.7,2.1 l 52,-5.7 c -1,-0.2 -2.1,-0.3 -3.1,-0.5 62.1,-7.7 144.8,-54.2 198.1,-111.5 24.6,-26.4 46.9,-57.6 67.5,-94.1 15.3,-27.1 29.8,-57.3 43.6,-90.6 12,-29.1 23.5,-60.7 34.6,-94.8 -14.3,7.5 -30.6,13.1 -48.6,16.9 -3.2,0.7 -6.4,1.3 -9.7,1.9 -3.3,0.6 -6.6,1.1 -10,1.5 v 0 0 c 0,0 0.1,0 0.1,-0.1 58,-22.3 94.5,-65.3 121,-118 -15.2,10.4 -40,24 -69.7,30.5 -4,0.9 -8.1,1.6 -12.3,2.3 -1,0.1 -2.1,0.3 -3.1,0.5 v 0 0 h 0.1 c 0,0 0,0 0.1,0 v 0 c 20.2,-8.4 37.1,-17.9 51.8,-29 3.2,-2.4 6.3,-4.8 9.1,-7.4 4.5,-3.9 8.7,-8 12.9,-12.2 2.6,-2.8 5.1,-5.6 7.6,-8.5 5.8,-6.9 11.2,-14.3 16.2,-22.3 1.5,-2.5 3.1,-4.9 4.5,-7.5 2,-3.7 3.8,-7.4 5.6,-10.9 8.1,-16.2 14.6,-30.8 19.7,-43.5 2.6,-6.4 4.8,-12.2 6.8,-17.8 0.8,-2.2 1.5,-4.3 2.2,-6.4 2.1,-6.1 3.7,-11.5 5,-16.3 2,-7.2 3.2,-12.9 3.8,-17 v 0 0 c -2,1.5 -4.2,3.1 -6.8,4.6 -17.5,10.5 -47.5,19.9 -71.7,24.4 l 47.7,-5.2 -47.7,5.2 c -0.3,0.1 -0.7,0.1 -1.1,0.2 -2.5,0.4 -4.8,0.8 -7.3,1.1 0.4,-0.2 0.8,-0.4 1.2,-0.6 l -163.3,17.9 c 0,0.4 -0.3,1.1 -0.6,1.7 z"
         inkscape:connector-curvature="0" />
      <linearGradient
         gradientTransform="matrix(0.4345,-0.9318,-0.9318,-0.4345,6223.4761,-5052.7427)"
         y2="2654.2649"
         x2="-6946.8647"
         y1="2654.2649"
         x1="-8640.6592"
         gradientUnits="userSpaceOnUse"
         id="linearGradient4346">
        <stop
           id="stop4348"
           style="stop-color:#9C2063"
           offset="0.3233" />
        <stop
           id="stop4350"
           style="stop-color:#C82037"
           offset="0.6302" />
        <stop
           id="stop4352"
           style="stop-color:#CC2135"
           offset="0.7514" />
        <stop
           id="stop4354"
           style="stop-color:#E87726"
           offset="1" />
      </linearGradient>
      <path
         style="fill:url(#SVGID_7_)"
         id="path3260"
         d="m 666.1,230.2 c -14.5,22.3 -30.3,47.6 -47.5,76.3 -0.9,1.4 -1.9,3.1 -2.7,4.5 -14.7,24.8 -30.3,52 -46.9,81.9 -14.2,25.8 -29,53.4 -44.4,83.1 -13.4,25.9 -27.2,53.4 -41.5,82.5 l 163.3,-17.9 c 47.6,-21.9 68.8,-41.6 89.4,-70.3 5.4,-7.9 11,-16.1 16.4,-24.7 16.8,-26.2 33.2,-55 47.9,-83.7 14.2,-27.7 26.7,-55.1 36.3,-79.9 6.1,-15.7 11,-30.3 14.4,-43.2 3,-11.3 5.3,-22.1 7.1,-32.4 -63.3,10.9 -141.2,21.3 -191.8,23.8 z"
         inkscape:connector-curvature="0" />
      <path
         style="fill:#bd202e"
         id="path3262"
         d="m 560.5,792.8 c -3.3,0.6 -6.6,1.1 -10,1.5 v 0 c 3.4,-0.3 6.8,-0.9 10,-1.5 z"
         inkscape:connector-curvature="0" />
      <path
         style="opacity:0.35;fill:#bd202e"
         id="path3264"
         d="m 560.5,792.8 c -3.3,0.6 -6.6,1.1 -10,1.5 v 0 c 3.4,-0.3 6.8,-0.9 10,-1.5 z"
         enable-background="new    "
         inkscape:connector-curvature="0" />
      <linearGradient
         gradientTransform="matrix(0.4345,-0.9318,-0.9318,-0.4345,6223.4761,-5052.7427)"
         y2="2593.446"
         x2="-6841.7925"
         y1="2593.446"
         x1="-8535.5889"
         gradientUnits="userSpaceOnUse"
         id="linearGradient4359">
        <stop
           id="stop4361"
           style="stop-color:#9C2063"
           offset="0.3233" />
        <stop
           id="stop4363"
           style="stop-color:#C82037"
           offset="0.6302" />
        <stop
           id="stop4365"
           style="stop-color:#CC2135"
           offset="0.7514" />
        <stop
           id="stop4367"
           style="stop-color:#E87726"
           offset="1" />
      </linearGradient>
      <path
         style="fill:url(#SVGID_8_)"
         id="path3275"
         d="m 560.5,792.8 c -3.3,0.6 -6.6,1.1 -10,1.5 v 0 c 3.4,-0.3 6.8,-0.9 10,-1.5 z"
         inkscape:connector-curvature="0" />
      <path
         style="fill:#bd202e"
         id="path3277"
         d="m 586.6,709.6 c 1,-0.1 2.1,-0.3 3.1,-0.5 -1,0.1 -2,0.4 -3.1,0.5 z"
         inkscape:connector-curvature="0" />
      <path
         style="opacity:0.35;fill:#bd202e"
         id="path3279"
         d="m 586.6,709.6 c 1,-0.1 2.1,-0.3 3.1,-0.5 -1,0.1 -2,0.4 -3.1,0.5 z"
         enable-background="new    "
         inkscape:connector-curvature="0" />
      <linearGradient
         gradientTransform="matrix(0.4345,-0.9318,-0.9318,-0.4345,6223.4761,-5052.7427)"
         y2="2599.3242"
         x2="-6841.7925"
         y1="2599.3242"
         x1="-8535.5889"
         gradientUnits="userSpaceOnUse"
         id="linearGradient4372">
        <stop
           id="stop4374"
           style="stop-color:#9C2063"
           offset="0.3233" />
        <stop
           id="stop4376"
           style="stop-color:#C82037"
           offset="0.6302" />
        <stop
           id="stop4378"
           style="stop-color:#CC2135"
           offset="0.7514" />
        <stop
           id="stop4380"
           style="stop-color:#E87726"
           offset="1" />
      </linearGradient>
      <path
         style="fill:url(#SVGID_9_)"
         id="path3290"
         d="m 586.6,709.6 c 1,-0.1 2.1,-0.3 3.1,-0.5 -1,0.1 -2,0.4 -3.1,0.5 z"
         inkscape:connector-curvature="0" />
      <path
         style="fill:#bd202e"
         id="path3292"
         d="m 586.6,709.6 c 0.1,0 0.1,-0.1 0,0 v 0 0 0 c 0.1,-0.1 0.1,0 0,0 z"
         inkscape:connector-curvature="0" />
      <path
         style="opacity:0.35;fill:#bd202e"
         id="path3294"
         d="m 586.6,709.6 c 0.1,0 0.1,-0.1 0,0 v 0 0 0 c 0.1,-0.1 0.1,0 0,0 z"
         enable-background="new    "
         inkscape:connector-curvature="0" />
      <linearGradient
         gradientTransform="matrix(0.4345,-0.9318,-0.9318,-0.4345,6223.4761,-5052.7427)"
         y2="2600.5515"
         x2="-7209.6543"
         y1="2600.5515"
         x1="-7584.0386"
         gradientUnits="userSpaceOnUse"
         id="linearGradient4385">
        <stop
           id="stop4387"
           style="stop-color:#9C2063"
           offset="0.3233" />
        <stop
           id="stop4389"
           style="stop-color:#C82037"
           offset="0.6302" />
        <stop
           id="stop4391"
           style="stop-color:#CC2135"
           offset="0.7514" />
        <stop
           id="stop4393"
           style="stop-color:#E87726"
           offset="1" />
      </linearGradient>
      <path
         style="fill:url(#SVGID_10_)"
         id="path3305"
         d="m 586.6,709.6 c 0.1,0 0.1,-0.1 0,0 v 0 0 0 c 0.1,-0.1 0.1,0 0,0 z"
         inkscape:connector-curvature="0" />
    </g>
    <g
       id="text4654"
       style="font-style:normal;font-variant:normal;font-weight:normal;font-stretch:normal;font-size:70.33530426px;line-height:125%;font-family:Montserrat;-inkscape-font-specification:Montserrat;letter-spacing:0px;word-spacing:0px;fill:#000000;fill-opacity:1;stroke:none;stroke-width:2.55764771px;stroke-linecap:butt;stroke-linejoin:miter;stroke-opacity:1"
       aria-label="HTTP SERVER PROJECT"
       transform="matrix(1.2259015,0,0,1.2259015,-169.53421,-149.67752)">
      <g
         aria-label="HTTPd"
         style="font-style:normal;font-variant:normal;font-weight:normal;font-stretch:normal;font-size:59.07361221px;line-height:125%;font-family:Montserrat;-inkscape-font-specification:Montserrat;letter-spacing:0px;word-spacing:0px;fill:#000000;fill-opacity:1;stroke:none;stroke-width:4.43052101px;stroke-linecap:butt;stroke-linejoin:miter;stroke-opacity:1"
         id="text411">
        <path
           d="m 381.56213,707.92088 h 11.72221 v 52.52449 h -11.72221 v -20.66414 h -20.88957 v 20.66414 h -11.7222 v -52.52449 h 11.7222 v 21.94156 h 20.88957 z"
           style="font-style:normal;font-variant:normal;font-weight:bold;font-stretch:normal;font-size:75.14233398px;font-family:Montserrat;-inkscape-font-specification:'Montserrat Bold';text-align:center;text-anchor:middle;stroke-width:4.43052101px"
           id="path1334"
           inkscape:connector-curvature="0" />
        <path
           d="m 428.42981,718.0651 v 42.38027 h -11.7222 V 718.0651 H 401.82943 V 707.92088 H 443.308 v 10.14422 z"
           style="font-style:normal;font-variant:normal;font-weight:bold;font-stretch:normal;font-size:75.14233398px;font-family:Montserrat;-inkscape-font-specification:'Montserrat Bold';text-align:center;text-anchor:middle;stroke-width:4.43052101px"
           id="path1336"
           inkscape:connector-curvature="0" />
        <path
           d="m 474.07291,718.0651 v 42.38027 H 462.3507 V 718.0651 h -14.87818 v -10.14422 h 41.47857 v 10.14422 z"
           style="font-style:normal;font-variant:normal;font-weight:bold;font-stretch:normal;font-size:75.14233398px;font-family:Montserrat;-inkscape-font-specification:'Montserrat Bold';text-align:center;text-anchor:middle;stroke-width:4.43052101px"
           id="path1338"
           inkscape:connector-curvature="0" />
        <path
           d="m 516.03403,707.92088 q 12.09792,0 17.58331,4.73397 5.56053,4.65882 5.56053,14.42733 0,9.69336 -5.71082,14.2019 -5.63567,4.50854 -17.28273,4.50854 h -6.98824 v 14.65275 h -11.72221 v -52.52449 z m 1.05199,27.72752 q 5.86111,0 7.96509,-2.32941 2.10399,-2.40455 2.10399,-6.91309 0,-4.58369 -2.78027,-6.46224 -2.70512,-1.95371 -8.49108,-1.95371 h -6.68767 v 17.65845 z"
           style="font-style:normal;font-variant:normal;font-weight:bold;font-stretch:normal;font-size:75.14233398px;font-family:Montserrat;-inkscape-font-specification:'Montserrat Bold';text-align:center;text-anchor:middle;stroke-width:4.43052101px"
           id="path1340"
           inkscape:connector-curvature="0" />
        <path
           d="m 562.98859,761.04651 q -7.13852,0 -12.77419,-6.08653 -5.63568,-6.08653 -5.63568,-15.10361 0,-9.01708 5.48539,-14.72789 5.48539,-5.78596 12.84934,-5.78596 7.36395,0 12.02277,5.18482 v -19.83758 h 11.27135 v 55.75561 h -11.27135 v -5.3351 q -4.73396,5.93624 -11.94763,5.93624 z m -7.06338,-20.73928 q 0,4.88425 2.93055,8.04023 2.93056,3.08083 6.83796,3.08083 3.9074,0 6.61252,-3.08083 2.78027,-3.15598 2.78027,-8.04023 0,-4.9594 -2.78027,-8.19052 -2.70512,-3.30626 -6.68767,-3.30626 -3.98254,0 -6.83795,3.30626 -2.85541,3.30627 -2.85541,8.19052 z"
           style="font-style:normal;font-variant:normal;font-weight:bold;font-stretch:normal;font-size:75.14233398px;font-family:Montserrat;-inkscape-font-specification:'Montserrat Bold';text-align:center;text-anchor:middle;stroke-width:4.43052101px"
           id="path1342"
           inkscape:connector-curvature="0" />
      </g>
    </g>
    <path
       style="fill:#3e3e3e;stroke-width:0.42056078"
       d="m 383.56891,987.91236 c -1.04089,-0.093 -5.29906,-0.4614 -9.46261,-0.8184 -99.17493,-8.5013 -190.49122,-61.0189 -247.05896,-142.0879 C 92.03767,794.83261 71.23271,736.26885 66.8223,675.47889 c -0.70588,-9.72941 -0.71409,-39.47429 -0.0131,-47.52335 1.95134,-22.40637 5.1497,-41.7439 9.95399,-60.18255 13.55689,-52.03079 37.97775,-98.04535 73.86521,-139.17915 6.1168,-7.011 21.73136,-22.62557 28.74236,-28.74236 31.58861,-27.55969 65.64554,-48.12507 103.56645,-62.5389 57.98006,-22.03835 120.62595,-27.69686 180.89942,-16.33978 49.07485,9.24696 94.90634,28.7581 134.8491,57.40726 75.99614,54.50862 125.98243,138.55082 137.68554,231.49136 1.99358,15.8321 2.28541,21.0705 2.31965,41.63551 0.0345,20.69416 -0.18959,24.75027 -2.29917,41.63552 -8.36937,66.98961 -36.35163,129.4047 -81.02229,180.72221 -5.70108,6.5494 -19.28095,20.3487 -26.43439,26.8615 -50.70201,46.1617 -116.17591,76.37 -183.9643,84.8774 -15.12782,1.8985 -19.93524,2.1789 -39.95327,2.3304 -10.75583,0.081 -20.40771,0.072 -21.4486,-0.021 z m 32.98469,-5.22 c 51.0455,-2.0611 101.27168,-16.2279 146.80504,-41.4078 66.44208,-36.7424 118.15238,-95.4539 146.58645,-166.43329 14.13202,-35.27744 22.08693,-72.65898 23.5324,-110.58319 0.44091,-11.56702 -0.0697,-32.16725 -1.05801,-42.68241 -6.70294,-71.32003 -36.10228,-138.45966 -83.94855,-191.71426 -5.99472,-6.67232 -19.46006,-20.06234 -26.0235,-25.8779 -21.12625,-18.71901 -45.31787,-35.07123 -70.48881,-47.64661 -11.82331,-5.90691 -17.18604,-8.34775 -26.45045,-12.0389 -30.55004,-12.1718 -58.88084,-18.98924 -93.78505,-22.56813 -8.85355,-0.90779 -38.92071,-1.28047 -49.54541,-0.6141 -73.12925,4.58657 -142.77622,33.26319 -198.16488,81.59292 -6.52793,5.69597 -20.4098,19.37215 -26.56838,26.17468 -33.35238,36.83978 -58.19413,81.00651 -72.46012,128.82852 -6.1914,20.75463 -10.02886,40.75983 -12.46406,64.97663 -0.91022,9.05167 -1.28085,38.47129 -0.62332,49.47739 4.01029,67.12699 29.48285,133.21564 71.84212,186.39475 48.30067,60.6381 117.71609,102.8319 194.199,118.043 26.65139,5.3004 51.09067,7.1901 78.61553,6.0787 z m -24.36319,-2.366 C 351.151,979.09116 308.94355,969.50216 270.64834,952.71366 210.2888,926.25216 158.94333,882.03856 124.36883,826.75242 94.74161,779.37713 77.68174,725.98742 74.4202,670.43562 c -0.56444,-9.61368 -0.29882,-36.64161 0.43814,-44.5829 2.02134,-21.78149 4.70936,-37.53945 9.70143,-56.87262 12.77214,-49.4637 37.99028,-96.72376 72.32136,-135.53392 6.10984,-6.90697 19.37022,-20.21771 26.50086,-26.60149 46.42803,-41.56519 104.17318,-69.11756 166.75234,-79.56377 25.4062,-4.24101 58.87438,-5.22751 85.16355,-2.51026 48.67078,5.0306 94.9482,20.43336 136.68225,45.49268 49.5945,29.77915 89.88625,71.59265 118.08249,122.54228 21.2572,38.41102 34.88493,81.76557 39.37534,125.26674 1.28123,12.41191 1.62147,21.98613 1.38561,38.98907 -0.24232,17.47052 -0.45592,20.83769 -2.22236,35.02962 -11.07576,88.98523 -57.88165,169.59991 -129.49491,223.03151 -43.32503,32.3253 -95.41434,53.9673 -148.87851,61.8556 -16.96849,2.5037 -40.66904,3.8709 -58.03738,3.3482 z m -10.35756,-34.3217 c 0.19027,-0.5205 0.57628,-5.2991 0.85782,-10.6192 0.28154,-5.3201 0.69332,-9.8571 0.91508,-10.0821 0.22176,-0.2252 3.09565,-0.4313 6.38645,-0.4581 7.00462,-0.057 10.41952,-0.7477 14.62381,-2.957 6.58989,-3.4628 9.63154,-7.907 10.4913,-15.3289 0.45868,-3.9595 -0.0824,-8.5323 -1.32163,-11.1686 -1.41398,-3.0081 -5.45499,-7.0854 -8.49644,-8.5728 -5.51323,-2.6961 -8.01512,-3.0605 -21.38153,-3.1135 -7.54911,-0.03 -12.22599,0.1095 -12.49034,0.3726 -0.41393,0.4119 -1.6734,21.3967 -2.5494,42.4766 -0.2403,5.7827 -0.54259,12.422 -0.67174,14.7539 -0.17971,3.2447 -0.10344,4.3489 0.32493,4.7044 0.63713,0.5288 2.95017,0.7542 8.85488,0.8631 3.9133,0.072 4.12752,0.03 4.45681,-0.8704 z m 2.68232,-32.534 c -1.05951,-0.473 -0.31775,-17.9795 0.7943,-18.7463 0.31489,-0.2172 2.39448,-0.3078 4.62131,-0.2015 4.82189,0.2303 7.05349,1.0783 9.24699,3.5136 3.72614,4.1371 2.0474,11.7334 -3.18388,14.4071 -1.78573,0.9127 -2.71968,1.0794 -6.5187,1.1635 -2.43887,0.054 -4.67088,-0.01 -4.96002,-0.1364 z m 74.24596,29.6831 c 3.64995,-0.9997 6.40183,-1.981 6.71199,-2.3935 0.37609,-0.5001 0.5257,-2.8967 0.5257,-8.4206 v -7.7214 l 1.36682,-0.5676 c 0.75175,-0.312 4.64545,-1.3906 8.65266,-2.3967 l 7.28582,-1.8293 0.88038,1.2051 c 0.48421,0.6628 2.41003,3.5789 4.27958,6.4803 1.86956,2.9014 3.71688,5.4723 4.10509,5.713 0.77519,0.4808 4.47856,-0.2627 10.46423,-2.101 2.56571,-0.7879 3.33925,-1.2019 3.33925,-1.7873 0,-0.9556 -31.72683,-51.7352 -33.9919,-54.4049 -0.34344,-0.4048 -0.94516,-0.736 -1.33715,-0.736 -1.30819,0 -16.18191,4.2383 -16.71052,4.7617 -0.63083,0.6246 -1.06361,9.4329 -2.04286,41.5788 -0.64514,21.178 -0.63945,24.3137 0.0442,24.3137 0.13226,0 3.02429,-0.7624 6.42675,-1.6943 z m 6.65185,-30.9336 c -0.41049,-1.0696 -0.29389,-23.2332 0.12357,-23.4912 0.33534,-0.2072 10.58016,16.4366 11.89919,19.3316 0.70708,1.5518 0.11723,1.9178 -5.67817,3.5224 -5.38931,1.4922 -5.99326,1.5528 -6.34459,0.6372 z m -137.60027,6.7634 c 2.42017,-42.5105 2.51746,-45.2284 1.64886,-46.062 -0.77275,-0.7416 -15.14236,-6.2978 -16.28744,-6.2978 -0.75418,0 -2.11867,1.6546 -11.27187,13.6682 -17.0357,22.3595 -28.52027,37.8055 -28.52027,38.3578 0,0.9881 11.5415,5.5115 12.81532,5.0227 0.3591,-0.1378 2.68006,-2.9997 5.15769,-6.3599 3.44709,-4.6749 4.72376,-6.1094 5.43752,-6.1094 0.9326,0 12.26831,3.9375 14.65022,5.0888 l 1.26168,0.6099 v 8.2688 c 0,5.2534 0.16236,8.4333 0.4452,8.7197 0.24486,0.248 3.17827,1.4769 6.51869,2.7309 4.66707,1.752 6.18853,2.1651 6.57023,1.7838 0.33251,-0.3322 0.85294,-6.7531 1.57417,-19.4215 z m -17.42137,-14.687 c -5.10201,-1.8426 -6.90997,-2.6548 -7.30558,-3.2821 -0.29646,-0.4699 0.98691,-2.604 5.15469,-8.5713 3.05218,-4.37 6.12289,-8.7744 6.82377,-9.7874 0.75877,-1.0966 1.42808,-1.6881 1.65431,-1.4618 0.22622,0.2262 0.13961,2.9281 -0.2141,6.6782 -0.32673,3.4641 -0.71103,8.3801 -0.85401,10.9245 -0.14297,2.5444 -0.34747,5.052 -0.45445,5.5724 -0.25055,1.219 -1.27135,1.2036 -4.80463,-0.072 z m 249.81309,-2.9874 c 4.42372,-1.4113 8.96833,-3.6816 12.83564,-6.4122 3.39237,-2.3953 9.87902,-8.464 9.87641,-9.2402 -0.004,-0.6677 -5.65621,-7.1028 -6.75942,-7.6932 -0.71592,-0.3831 -1.29979,-0.018 -4.20044,2.624 -3.69239,3.3636 -7.2527,5.7055 -10.87481,7.1533 -1.87305,0.7487 -3.2038,0.9414 -6.5642,0.9507 -3.96008,0.011 -4.39146,-0.075 -7.13637,-1.4268 -4.25069,-2.0929 -8.3483,-6.3343 -10.59637,-10.9681 -2.18868,-4.5114 -2.80737,-7.2288 -2.57193,-11.2963 0.46534,-8.0383 7.01878,-14.8394 18.06888,-18.75171 1.07833,-0.38179 2.04569,-0.92145 2.14965,-1.19923 0.23165,-0.61877 -2.45161,-9.02582 -3.1489,-9.86598 -0.65842,-0.79334 -2.3424,-0.5045 -6.2714,1.07572 -11.99368,4.8237 -21.38186,14.4803 -24.20529,24.8973 -1.11894,4.1283 -1.02028,11.4431 0.21238,15.7464 3.07918,10.7492 11.07357,20.3113 19.91788,23.8235 6.03812,2.3978 12.9259,2.6061 19.26829,0.5828 z m -144.6729,-43.1004 c 39.87797,-2.3953 79.53902,-17.13027 111.86916,-41.56182 18.96031,-14.32814 36.37506,-33.17115 49.24868,-53.28787 33.35497,-52.12162 41.73686,-117.63024 22.48225,-175.70987 -10.50225,-31.67886 -26.96817,-58.49313 -50.28233,-81.88324 -13.44954,-13.49332 -27.07671,-23.99521 -43.10748,-33.22109 -6.2044,-3.57068 -20.26446,-10.37951 -26.49533,-12.83082 -56.08085,-22.06291 -116.8235,-19.34734 -170.11683,7.60528 -35.06648,17.73456 -63.64157,44.32161 -83.94272,78.10266 -4.78542,7.96293 -11.70517,21.97503 -15.00488,30.38401 -21.32295,54.33954 -19.00888,114.16946 6.44146,166.54206 7.3278,15.07942 16.75369,29.55521 28.20631,43.31776 4.97338,5.97646 18.53818,19.43483 24.97741,24.78137 23.83999,19.79458 50.94645,33.72897 80.6397,41.45377 13.63259,3.5466 25.31705,5.4001 40.69207,6.4553 4.59505,0.3154 18.04043,0.2341 24.39253,-0.1475 z m -22.71029,-2.3776 c -24.58682,-1.5594 -44.09943,-5.818 -65.60748,-14.31883 -20.39885,-8.06244 -38.4052,-18.77189 -55.93458,-33.26757 -6.38359,-5.27884 -20.16968,-19.12799 -25.67675,-25.79422 -22.49055,-27.22444 -37.60826,-59.41936 -43.89912,-93.4883 -2.68049,-14.51651 -2.95105,-17.91135 -2.95165,-37.03474 -4.2e-4,-15.86083 0.0937,-18.35031 0.92213,-24.39253 4.57764,-33.38401 14.93791,-61.56651 32.3895,-88.10748 30.51225,-46.40406 77.76629,-77.78714 133.21122,-88.47028 13.38457,-2.57894 18.35017,-2.97988 37.00935,-2.98822 14.1628,-0.007 18.25721,0.12607 22.92057,0.74124 21.01835,2.77266 37.99397,7.20091 55.51401,14.48135 54.90262,22.81476 96.64062,67.63669 115.44003,123.96956 4.3374,12.99717 7.05023,24.7418 9.13146,39.53271 0.85997,6.11177 0.94769,8.36843 0.95635,24.6028 0.0101,19.13526 -0.19064,21.92511 -2.55881,35.53739 -11.73146,67.43322 -56.96167,124.92913 -119.75394,152.22924 -21.81298,9.48358 -48.64475,15.83058 -69.4534,16.42898 -11.98791,0.3448 -19.67117,0.465 -21.65889,0.3389 z m 21.44861,-5.1971 c 72.32979,-4.4307 136.11399,-47.1233 167.41687,-112.05688 20.76371,-43.07156 25.53939,-91.16622 13.59441,-136.9067 -7.5216,-28.80224 -22.01,-56.81294 -40.56993,-78.43458 -18.42574,-21.46533 -39.79633,-38.15424 -64.10958,-50.06501 -20.64956,-10.11597 -41.80337,-16.37568 -65.39719,-19.35195 -7.25302,-0.91494 -29.64169,-1.28595 -38.20082,-0.63304 -44.0472,3.36002 -86.99697,22.02063 -118.92602,51.6704 -11.45797,10.64004 -22.25929,23.14134 -30.41511,35.20203 -19.46862,28.78987 -30.94892,61.56161 -33.70067,96.20214 -0.58339,7.34399 -0.30531,31.31622 0.43298,37.3259 2.89396,23.55673 9.91099,47.15237 20.04455,67.40239 23.30623,46.57307 63.81113,82.05078 112.951,98.93226 25.4274,8.73534 50.99748,12.29844 76.87951,10.71304 z m 204.78357,4.358 c 3.40406,-3.8672 6.40825,-8.08981 6.26912,-8.81175 -0.0778,-0.40391 -4.30502,-4.12381 -9.39381,-8.26642 -5.08878,-4.14256 -9.4092,-7.80923 -9.60098,-8.14803 -0.19173,-0.33884 -0.18055,-0.84272 0.0248,-1.11974 0.20544,-0.27702 3.26615,-4.14677 6.80155,-8.59946 4.1763,-5.25983 6.69953,-8.09579 7.20308,-8.09579 0.42628,0 2.53761,1.37923 4.69194,3.065 2.15428,1.68573 6.52037,5.11204 9.70237,7.614 3.4952,2.74824 6.0263,4.45664 6.39379,4.31563 0.6276,-0.24086 6.99973,-8.03696 7.81671,-9.56347 0.34398,-0.64279 0.32421,-1.02188 -0.0788,-1.50737 -0.57466,-0.69246 -31.27021,-25.3112 -41.77086,-33.5015 -3.46104,-2.69953 -6.5017,-4.90828 -6.75702,-4.90828 -0.45076,0 -6.02571,6.61202 -7.53246,8.93368 -0.41163,0.6343 -0.64387,1.42583 -0.51606,1.75896 0.12784,0.33312 4.12296,3.77945 8.87804,7.65845 4.75506,3.87904 8.64559,7.25207 8.64559,7.49566 0,0.44756 -8.58268,11.60987 -12.05774,15.68182 -1.69178,1.9824 -1.97558,2.15769 -2.79802,1.72829 -0.50342,-0.26284 -4.22719,-3.04364 -8.27509,-6.17959 -4.04789,-3.1359 -7.81116,-6.04274 -8.3628,-6.45956 -0.55161,-0.41686 -1.32384,-0.75789 -1.71606,-0.75789 -0.6599,0 -7.6807,8.33779 -8.2332,9.77762 -0.2967,0.77315 1.46684,2.31295 17.05038,14.88693 18.76243,15.13891 31.17777,24.96161 31.55005,24.96161 0.18761,0 1.11697,-0.8814 2.06529,-1.9588 z m -428.86,-36.13777 c -0.0703,-1.36813 -0.40149,-5.85816 -0.73598,-9.97785 -0.33449,-4.11964 -0.60816,-8.67705 -0.60816,-10.12752 v -2.63721 l 3.04906,-2.91828 c 1.67699,-1.60503 5.75202,-5.35642 9.05563,-8.33644 3.30362,-2.97996 5.93466,-5.62571 5.84676,-5.87943 -0.18802,-0.54266 -0.59175,-0.52541 -14.33747,0.61271 l -10.4748,0.86733 -1.93174,-1.91167 c -1.06246,-1.0514 -4.86516,-5.21028 -8.45044,-9.24194 -3.58528,-4.03167 -6.75526,-7.34594 -7.04439,-7.36507 -0.69976,-0.0463 -0.66998,1.18106 0.31542,13.0026 0.4531,5.43575 0.82772,10.4718 0.83248,11.19121 0.007,1.17509 -0.93209,2.15579 -9.24369,9.6456 -5.08879,4.58563 -9.25234,8.47148 -9.25234,8.63524 0,0.65444 1.49605,0.61533 12.61682,-0.32997 6.36098,-0.54071 11.98222,-0.88296 12.49165,-0.76054 0.51198,0.12301 4.55099,4.26685 9.03101,9.26534 4.45763,4.97351 8.299,8.97763 8.53638,8.8981 0.25018,-0.0839 0.37788,-1.1904 0.3038,-2.63221 z m 483.87174,-48.9595 c 8.213,-20.95145 11.60979,-30.37954 11.18683,-31.05004 -0.57798,-0.91632 -8.02661,-3.93019 -9.31891,-3.77063 -0.90076,0.11121 -1.46603,1.27754 -5.32956,10.99603 -2.37705,5.97941 -4.61615,11.16584 -4.97578,11.52551 -0.59148,0.59147 -1.00749,0.52171 -4.35869,-0.73085 -5.8534,-2.18776 -8.96181,-3.69076 -8.96181,-4.33321 0,-0.32644 1.60864,-4.88149 3.57477,-10.12235 1.96611,-5.2409 3.57476,-9.8873 3.57476,-10.32539 0,-0.60292 -0.89449,-1.17319 -3.6799,-2.34609 -2.02395,-0.85226 -4.27866,-1.65032 -5.01053,-1.77346 -1.65326,-0.27819 -1.58778,-0.39597 -6.08904,10.95345 -1.84912,4.66237 -3.61871,8.73988 -3.93241,9.06111 -0.48566,0.49726 -1.21576,0.34851 -4.91291,-1.00102 -6.5538,-2.39228 -6.786,-2.54099 -6.48387,-4.15148 0.13933,-0.74272 1.86473,-5.56302 3.83426,-10.71177 1.96948,-5.14877 3.62443,-9.76948 3.67767,-10.26825 0.0998,-0.93586 -1.36303,-1.68778 -7.61812,-3.91576 -2.21724,-0.78975 -2.25559,-0.78954 -2.84434,0.0156 -0.64732,0.88528 -6.37296,15.248 -10.88104,27.29493 -2.33865,6.24962 -2.71892,7.61152 -2.25219,8.0659 0.66188,0.64434 2.19507,1.26223 32.94476,13.27684 12.98893,5.07509 24.01759,9.15419 24.5909,9.09531 0.92039,-0.0946 1.29462,-0.75743 3.26515,-5.78436 z M 146.58292,677.78072 c 13.18457,-0.23732 24.5855,-0.52941 25.3354,-0.6491 1.81371,-0.28947 1.95969,-1.02362 1.58707,-7.98082 -0.29549,-5.51714 -0.32945,-5.67011 -1.31347,-5.91709 -0.55557,-0.13943 -5.50399,-0.18547 -10.99648,-0.1023 l -9.98636,0.15123 -0.10135,-1.68224 c -0.75096,-12.46428 -2.6879,-18.61716 -7.35244,-23.35586 -3.6934,-3.75212 -8.16708,-5.43935 -14.44417,-5.44756 -6.2888,-0.008 -10.11545,1.54114 -14.03067,5.68091 -2.38625,2.52311 -3.81182,5.25996 -4.92452,9.45428 -0.93774,3.53477 -1.05768,18.29538 -0.20121,24.76186 0.79707,6.01808 0.74459,5.97692 7.29604,5.7203 2.83811,-0.11117 15.94758,-0.39629 29.13216,-0.63361 z m -25.85484,-14.89327 c -0.63281,-1.66442 -0.52349,-7.33983 0.18738,-9.72708 1.2038,-4.04264 4.25083,-6.23304 8.63594,-6.20805 6.49519,0.037 10.09226,4.50955 10.09226,12.54857 0,2.91615 -0.11951,3.53227 -0.73597,3.7943 -0.4048,0.17206 -4.56401,0.4053 -9.24269,0.51832 l -8.50671,0.20548 z m 42.25671,-49.43956 c 11.78793,-3.67268 19.68541,-14.5668 20.27557,-27.969 0.25238,-5.73109 -0.49319,-9.59675 -2.7578,-14.29906 -3.09322,-6.42281 -7.42639,-10.50472 -14.99441,-14.12494 -10.69966,-5.11827 -22.15382,-5.53761 -31.33177,-1.14707 -4.97945,2.38204 -9.9789,7.39156 -12.51322,12.53837 -3.33748,6.77792 -4.49449,15.51429 -2.89625,21.86915 2.26855,9.02012 9.61111,17.24959 18.75475,21.02012 3.00884,1.24075 7.97845,2.73491 10.32294,3.10368 0.69392,0.10915 3.72196,0.13715 6.72897,0.0622 4.14506,-0.10329 6.17927,-0.35807 8.41122,-1.05346 z m -11.7082,-13.98758 c -3.56132,-0.39328 -8.49878,-2.01424 -11.88858,-3.90298 -3.91728,-2.18264 -6.66232,-4.87856 -8.24785,-8.10023 -1.18087,-2.39946 -1.37723,-3.23967 -1.36273,-5.831 0.0229,-4.07705 1.92132,-7.97267 5.02978,-10.32087 2.90778,-2.1966 5.19301,-2.91063 10.12965,-3.16509 11.76193,-0.60625 23.37012,5.41869 26.11374,13.55371 2.12596,6.3036 -0.9834,13.29052 -7.28855,16.37786 -2.82127,1.38145 -7.66855,1.92055 -12.48546,1.3886 z M 666.11858,582.5089 c -0.5051,-6.4623 -0.79545,-12.22276 -0.64523,-12.80104 0.16928,-0.65161 3.635,-4.07792 9.11428,-9.01073 4.8626,-4.37764 8.84111,-8.23736 8.84111,-8.57717 0,-0.50311 -0.48811,-0.57326 -2.62851,-0.37779 -10.88155,0.99371 -21.30569,1.66614 -22.18458,1.43104 -0.64396,-0.17224 -4.2168,-3.78666 -9.21928,-9.32657 -4.49235,-4.97492 -8.32471,-9.04531 -8.51636,-9.04531 -0.48133,0 -0.45845,0.55707 0.49265,11.98597 0.46199,5.55141 0.84019,10.94777 0.84053,11.99192 v 1.89845 l -9.04206,8.14035 c -8.30864,7.48005 -9.95492,9.28033 -8.51635,9.313 0.28914,0.007 5.63888,-0.40348 11.88833,-0.91121 6.24948,-0.50774 11.83243,-0.8018 12.40654,-0.65346 0.64694,0.16714 4.14231,3.72471 9.19136,9.35488 4.75452,5.30175 8.30317,8.92947 8.52139,8.71124 0.21824,-0.21822 -0.008,-5.26696 -0.54441,-12.12357 z M 200.95617,540.79431 c 1.98806,-2.52241 6.81834,-10.05275 6.81834,-10.62969 0,-0.86409 -11.33469,-13.24311 -24.32701,-26.56842 -3.08948,-3.16866 -5.55093,-5.95173 -5.46988,-6.18459 0.081,-0.23287 4.07562,1.36507 8.87684,3.55097 15.7754,7.18225 29.50186,12.92997 30.98895,12.9761 1.3751,0.0427 1.6028,-0.17574 4.55773,-4.371 1.71067,-2.42874 3.47158,-5.11663 3.91313,-5.97309 l 0.80282,-1.5572 -2.18976,-2.6484 c -7.24023,-8.75668 -39.26239,-45.40681 -40.07063,-45.86181 -0.63599,-0.35803 -1.63872,0.81739 -5.61875,6.58639 -1.42171,2.06074 -2.58494,4.00176 -2.58494,4.31337 0,0.68763 5.79335,6.79433 20.58125,21.69447 6.36981,6.41816 10.86067,11.25 10.4561,11.25 -0.39004,0 -4.45765,-1.72699 -9.03913,-3.83778 -10.79549,-4.97368 -25.68545,-11.54494 -29.08867,-12.83745 -1.471,-0.55867 -2.99736,-0.91331 -3.39188,-0.7881 -0.70649,0.22423 -8.02234,10.81282 -8.02234,11.61113 0,0.59215 6.63318,7.71826 19.9173,21.39741 6.39362,6.58373 11.62476,12.11936 11.62476,12.3014 0,0.18203 -0.16249,0.33097 -0.36109,0.33097 -0.1986,0 -5.82885,-2.47686 -12.51168,-5.50413 -26.3677,-11.94436 -29.16026,-13.12266 -29.8143,-12.57986 -1.24824,1.03593 -7.84917,11.32378 -7.56286,11.78703 0.4176,0.6757 1.77194,1.22997 24.59572,10.066 11.21846,4.34314 23.33061,9.04157 26.91589,10.44096 3.58528,1.39939 7.02324,2.55967 7.6399,2.57839 0.81654,0.0247 1.45895,-0.3945 2.36419,-1.54307 z m 372.16263,-61.6503 c 4.57814,-4.89432 8.60657,-9.11918 8.95206,-9.38858 0.34549,-0.26941 1.38637,-0.71067 2.31312,-0.98058 3.81024,-1.10977 33.7826,-10.56842 35.43494,-11.18253 0.98306,-0.36537 1.78738,-0.91893 1.78738,-1.23013 0,-0.53962 -8.01585,-8.30251 -10.02916,-9.71271 -0.91316,-0.63959 -1.23152,-0.55403 -6.50522,1.7483 -3.04979,1.33145 -8.74948,3.90571 -12.66603,5.72059 -3.91652,1.81488 -7.27574,3.29977 -7.46496,3.29977 -0.66651,0 -0.31622,-1.21087 2.59398,-8.96686 4.47178,-11.91779 6.35211,-17.58821 6.09787,-18.38922 -0.297,-0.93579 -10.25381,-10.07382 -10.97642,-10.07382 -0.65965,0 -0.9492,0.97286 -6.69642,22.5 -2.47012,9.25234 -4.68568,17.20093 -4.92342,17.66355 -0.23774,0.46262 -2.34891,2.82827 -4.69144,5.25701 -6.70218,6.94877 -12.0285,12.96791 -12.0285,13.59308 0,0.96878 9.10501,9.5679 9.8344,9.288 0.35419,-0.13591 4.38972,-4.25156 8.96782,-9.14587 z m -315.24583,-5.01114 c 16.54598,-12.80795 20.55575,-16.02309 20.55575,-16.48212 0,-0.57124 -5.73329,-7.89305 -6.52954,-8.33865 -0.41552,-0.23253 -3.50377,1.866 -10.17292,6.9127 -5.26695,3.98563 -9.95034,7.2567 -10.40753,7.26904 -0.56745,0.0153 -2.13049,-1.57922 -4.92503,-5.02429 -2.25159,-2.7757 -4.10265,-5.27937 -4.11349,-5.56372 -0.0109,-0.28433 2.77176,-2.72658 6.18355,-5.4272 10.62528,-8.4105 11.03654,-8.75999 11.03816,-9.38031 0.002,-0.85987 -5.85012,-8.43719 -6.51646,-8.43719 -0.30425,0 -2.69989,1.63174 -5.32365,3.62607 -12.82701,9.74991 -12.5936,9.58976 -13.32426,9.1416 -0.93585,-0.57402 -7.21724,-8.62228 -7.21724,-9.24735 0,-0.45419 3.16109,-3.08723 13.98364,-11.64775 2.25526,-1.78389 4.10047,-3.54705 4.10047,-3.91814 0,-0.67486 -2.64425,-4.56762 -4.92803,-7.25483 -1.11995,-1.3178 -1.29096,-1.38469 -2.24265,-0.87728 -3.21852,1.71599 -29.18246,22.16644 -29.33782,23.10788 -0.0828,0.50186 2.80416,4.5769 7.95608,11.23015 21.00486,27.126 28.73171,36.99566 29.4896,37.66766 0.59684,0.52921 1.029,0.61972 1.57182,0.3292 0.41177,-0.22037 4.98357,-3.67883 10.15955,-7.68547 z m 274.1361,-19.27012 c 4.33417,-0.99879 8.90765,-4.37119 11.18377,-8.24668 1.53428,-2.61245 2.41843,-6.51001 2.06604,-9.1079 -0.39285,-2.8961 -1.62694,-6.11415 -3.15223,-8.21973 -0.68639,-0.94755 -1.24801,-1.91372 -1.24801,-2.14703 0,-0.23331 0.80432,-0.42645 1.78738,-0.4292 4.09268,-0.0114 8.73677,-2.03327 11.25303,-4.89915 2.30589,-2.62625 3.13776,-4.94448 3.14487,-8.76407 0.006,-2.92351 -0.17092,-3.73864 -1.34584,-6.21909 -2.67607,-5.64974 -8.76899,-10.5529 -20.22347,-16.27452 -6.76631,-3.37984 -11.14082,-5.14093 -11.97491,-4.82086 -0.66723,0.25604 -1.51865,1.71765 -10.27653,17.64156 -13.14274,23.89664 -19.53392,36.01902 -19.30475,36.61615 0.38464,1.00237 8.48994,6.08205 14.78342,9.26493 10.45115,5.28558 17.42136,6.96198 23.30723,5.60559 z M 518.94006,442.3181 c -2.58931,-0.82832 -6.69125,-3.03606 -7.53914,-4.05774 -0.44933,-0.54139 -0.2425,-1.21435 1.25941,-4.0978 3.2519,-6.24322 6.34635,-11.2304 6.96823,-11.2304 1.03315,0 6.51861,3.47206 8.48536,5.37085 2.20475,2.12859 3.07182,3.99676 3.07182,6.61838 0,3.28357 -2.01465,6.2392 -5.14409,7.54678 -2.00692,0.83853 -4.15291,0.79319 -7.10159,-0.15007 z m 9.72231,-26.61688 c -2.73583,-1.38608 -3.6069,-2.03764 -3.71162,-2.7763 -0.12994,-0.91634 4.29128,-9.66462 5.86922,-11.6134 0.6798,-0.83958 0.71366,-0.83291 3.98982,0.78626 4.09177,2.02225 7.53813,5.28936 7.96177,7.54764 0.37295,1.98801 -0.64443,4.7292 -2.36835,6.3811 -1.17093,1.122 -1.57891,1.2392 -4.72382,1.35695 -3.33563,0.12487 -3.55298,0.0728 -7.01702,-1.68225 z m -231.15528,31.99353 c 3.12591,-1.41563 5.76724,-2.79213 5.8696,-3.0589 0.10238,-0.26676 -1.86393,-5.11729 -4.36955,-10.77894 -2.50562,-5.66165 -4.565,-10.69388 -4.57639,-11.18273 -0.016,-0.68723 0.54905,-1.14453 2.49124,-2.01614 3.66436,-1.64446 6.20443,-1.84541 8.60957,-0.68109 1.53251,0.74186 3.11748,2.36274 7.5585,7.72967 7.0463,8.51538 7.41853,8.86797 9.02283,8.54712 1.62772,-0.32555 10.60658,-4.37 11.37094,-5.12195 0.50961,-0.50134 0.50961,-0.6984 0,-1.40874 -1.82922,-2.54974 -13.95671,-16.40614 -15.08055,-17.23045 -1.69657,-1.24442 -5.47114,-3.00892 -6.44804,-3.01427 -1.31058,-0.008 -1.21644,-1.0425 0.328,-3.60726 3.49991,-5.81213 3.60492,-11.72189 0.3095,-17.41874 -4.81107,-8.31698 -13.07338,-10.3779 -24.91168,-6.21388 -7.90669,2.7811 -21.86916,10.1792 -21.86916,11.58751 0,0.97719 23.90347,54.59334 24.92923,55.91694 0.22407,0.28915 0.5593,0.52571 0.74494,0.52571 0.18564,0 2.8951,-1.15824 6.02102,-2.57386 z m -9.34773,-38.1154 c -2.45245,-4.87693 -5.55976,-12.44543 -5.34226,-13.01221 0.12302,-0.32057 1.82097,-1.34929 3.77324,-2.28606 6.45793,-3.09873 10.88265,-2.60796 13.60999,1.50958 3.66383,5.53138 1.34239,10.93368 -6.29006,14.63774 -1.77838,0.86304 -3.52624,1.56918 -3.88414,1.56918 -0.37082,0 -1.1738,-1.04019 -1.86677,-2.41823 z m 77.93202,15.87329 c 9.93294,-1.61757 18.27118,-2.94104 18.52944,-2.94104 0.25826,0 0.80924,-0.24837 1.22438,-0.55194 0.72303,-0.52868 0.7244,-0.74951 0.0326,-5.24199 -0.39723,-2.57954 -0.95124,-5.00324 -1.23113,-5.38602 -0.46889,-0.64125 -1.38302,-0.5598 -11.63142,1.0364 -12.29856,1.9155 -13.63765,2.02214 -13.9862,1.11385 -0.13052,-0.34016 -0.66306,-3.36689 -1.1834,-6.72607 -0.66914,-4.31984 -0.81498,-6.23869 -0.49822,-6.55545 0.24632,-0.24632 5.15872,-1.29816 10.91644,-2.33743 5.75773,-1.03927 10.63436,-2.05515 10.83697,-2.25752 0.21076,-0.21052 0.15483,-1.8657 -0.13071,-3.86873 -0.6555,-4.59814 -1.17764,-6.52226 -1.83878,-6.77597 -0.29731,-0.11409 -4.69538,0.42991 -9.77347,1.20888 -9.68595,1.4858 -12.17874,1.69224 -12.58072,1.04184 -0.13379,-0.21648 -0.64426,-2.78577 -1.13437,-5.70953 -0.75928,-4.52951 -0.80474,-5.39849 -0.30726,-5.87396 0.32112,-0.30691 5.48373,-1.41412 11.47248,-2.46046 6.32363,-1.10485 11.13104,-2.14486 11.46685,-2.48067 0.49063,-0.49062 0.45523,-1.29926 -0.23354,-5.33615 -0.44647,-2.61684 -0.98856,-4.93468 -1.20463,-5.15076 -0.24343,-0.24342 -3.5763,0.0983 -8.76256,0.89832 -10.57395,1.63121 -27.6662,4.56445 -28.53084,4.89624 -0.36114,0.13858 -0.65662,0.56274 -0.65662,0.94258 0,0.85465 4.80913,31.21298 7.59226,47.92725 1.85591,11.14581 2.43814,13.54154 3.28868,13.53226 0.14516,-0.002 8.39087,-1.32634 18.32379,-2.94393 z m 72.96875,-3.71353 c 5.15861,-1.77833 8.4242,-3.77522 11.79851,-7.21471 3.24522,-3.30792 5.18936,-6.44738 6.78516,-10.95692 3.76918,-10.65128 3.1161,-22.29863 -1.66329,-29.66362 -2.61917,-4.03612 -6.61759,-7.43843 -11.55093,-9.82886 -7.23781,-3.50706 -14.6671,-4.90955 -28.35864,-5.35349 l -8.08207,-0.26206 -0.40799,1.07309 c -0.22439,0.5902 -1.63978,12.21046 -3.14531,25.8228 -3.67849,33.25935 -3.80654,34.61825 -3.30895,35.11584 0.35786,0.35786 8.59732,1.98009 13.14967,2.58898 0.80603,0.10782 5.81832,0.16281 11.13842,0.12222 l 9.6729,-0.0738 z m -20.86955,-9.59465 c -1.7695,-0.3814 -1.91668,-1.01404 -1.42304,-6.11699 1.46098,-15.10331 3.54838,-33.90401 3.85478,-34.71914 0.31917,-0.84914 0.63915,-0.94627 3.11747,-0.94627 6.38457,0 12.56187,2.22541 16.15718,5.82072 3.96506,3.96506 5.4303,9.18786 4.66011,16.61078 -0.93323,8.99429 -4.63535,14.93276 -11.26808,18.07482 -2.71047,1.28401 -3.06269,1.34225 -8.50514,1.40646 -3.12266,0.0368 -6.08964,-0.0218 -6.59328,-0.13038 z"
       id="path427"
       inkscape:connector-curvature="0" />
    <path
       style="opacity:1;fill:#ffffff;fill-opacity:1;stroke:none;stroke-width:8.33725643;stroke-linecap:round;stroke-linejoin:miter;stroke-miterlimit:4;stroke-dasharray:none;stroke-opacity:1"
       d="m 360.28544,-115.39248 c -1.36307,-0.22277 -2.83155,0.14208 -2.73927,1.83882 -2.53822,17.447565 -4.08085,35.040095 -5.962,52.572492 -0.30541,3.906546 -0.98152,7.949191 -0.59366,11.798406 8.05877,1.886454 16.2892,3.068476 24.58451,2.633627 6.43539,-0.138623 13.22637,0.259083 19.07075,-2.94728 9.22791,-4.000724 15.57147,-12.888649 17.70579,-22.563072 1.5315,-6.60517 1.35307,-13.636315 -0.0776,-20.240847 -3.04837,-10.389086 -12.94639,-17.453946 -23.06027,-20.118486 -9.39918,-2.49952 -19.26573,-2.64959 -28.9283,-2.97366 z m 14.66579,12.61757 c 8.41913,0.006 18.06831,3.887715 20.99481,12.434034 2.44663,7.439268 1.19581,15.957824 -2.34807,22.811236 -2.55912,4.206098 -6.7561,7.873741 -11.63871,8.995074 -4.64964,0.205956 -9.47933,0.701855 -14.04709,-0.115466 -1.35984,-2.400216 -0.13759,-5.549437 -0.24644,-8.185954 1.19031,-11.753488 2.08474,-23.5971 4.12399,-35.222004 0.56865,-1.07739 2.20414,-0.55847 3.16151,-0.71692 z"
       id="path1272"
       inkscape:connector-curvature="0"
       transform="matrix(0.93750002,0,0,0.93750002,72.314569,466.77116)" />
    <path
       style="opacity:1;fill:#ffffff;fill-opacity:1;stroke:none;stroke-width:8.33725643;stroke-linecap:round;stroke-linejoin:miter;stroke-miterlimit:4;stroke-dasharray:none;stroke-opacity:1"
       d="m 481.16958,-86.505541 c -6.05549,9.438652 -11.04161,19.549026 -16.55251,29.317476 -5.03121,9.45001 -10.44606,18.844804 -14.89103,28.511548 5.7713,5.014031 12.7865,8.396093 19.59,11.783296 7.71936,3.560978 17.29525,6.797178 25.34916,2.410289 7.69299,-3.879749 12.3668,-13.975404 8.23765,-22.000399 -0.51909,-2.065131 -2.62927,-3.773111 -2.69188,-5.839601 2.72911,-0.899121 5.88172,-0.626153 8.45479,-2.213655 5.25486,-2.149009 8.9057,-7.665376 8.16396,-13.400578 0.16148,-7.763232 -6.5048,-13.268658 -12.30346,-17.295025 -7.35894,-4.408795 -14.92104,-8.773329 -23.14902,-11.3397 z m 8.98559,16.171136 c 4.6127,1.706058 9.43098,4.593049 11.53272,9.234618 0.75532,3.984834 -2.63692,8.993917 -7.04423,8.247995 -4.11937,0.793106 -8.17748,-1.379858 -11.27508,-3.907716 -1.06959,-1.517437 0.98232,-3.383253 1.2892,-4.916862 1.62191,-2.880567 2.60519,-6.457716 5.18202,-8.644248 0.10211,-0.03058 0.21091,-0.02903 0.31537,-0.01379 z M 477.261,-46.739901 c 4.00936,1.633489 7.72223,4.391993 10.55902,7.690488 3.34051,4.457204 1.10565,11.682472 -4.33425,13.168185 -5.16004,1.503987 -10.53941,-1.268374 -14.60029,-4.218782 -1.47503,-1.680026 0.86078,-3.794221 1.30803,-5.468217 2.13816,-3.809561 3.99579,-7.932971 6.94082,-11.182875 z"
       id="path1283"
       inkscape:connector-curvature="0"
       transform="matrix(0.93750002,0,0,0.93750002,72.314569,466.77116)" />
    <path
       style="opacity:1;fill:#ffffff;fill-opacity:1;stroke:none;stroke-width:8.33725643;stroke-linecap:round;stroke-linejoin:miter;stroke-miterlimit:4;stroke-dasharray:none;stroke-opacity:1"
       d="m 544.3953,-49.775597 c -1.56827,1.278945 -1.40147,3.980284 -2.24018,5.759319 -3.56879,12.320295 -6.46256,24.856153 -10.39979,37.0540812 -5.49366,6.90041817 -12.27883,12.7682025 -17.44815,19.8978978 1.64529,3.228766 4.91087,5.50562 7.54917,7.960194 1.04516,0.925384 2.86916,2.623525 3.99084,0.830182 6.36354,-6.173694 12.19883,-13.0505142 18.62707,-19.037395 13.59831,-4.4100688 27.4123,-8.236995 40.80428,-13.236327 0.7518,-1.068465 -1.31972,-2.218498 -1.76817,-3.111524 -2.9576,-2.854296 -5.69288,-6.323384 -9.45607,-8.099786 -4.05014,1.032857 -7.8041,3.346463 -11.72686,4.870182 -5.23795,2.242693 -10.46679,4.870587 -15.76674,6.77283 1.477,-6.465003 4.39885,-12.576487 6.41548,-18.910579 1.13343,-3.361303 2.45569,-6.731843 3.22327,-10.165929 -3.65732,-3.770723 -7.57036,-7.538354 -11.80415,-10.583146 z"
       id="path1285"
       inkscape:connector-curvature="0"
       transform="matrix(0.93750002,0,0,0.93750002,72.314569,466.77116)" />
    <path
       style="opacity:1;fill:#ffffff;fill-opacity:1;stroke:none;stroke-width:8.33725643;stroke-linecap:round;stroke-linejoin:miter;stroke-miterlimit:4;stroke-dasharray:none;stroke-opacity:1"
       d="m 606.56029,72.832757 c -0.88395,1.345256 0.10269,3.502847 -0.1049,5.091859 0.41284,7.435443 1.34361,14.849344 1.37157,22.301794 -6.22102,5.93495 -13.11821,11.24755 -18.82769,17.67648 -0.2124,1.38077 2.37462,0.26245 3.12531,0.56096 7.66242,-0.3902 15.31153,-1.00001 22.95858,-1.61479 6.36794,6.3407 12.33936,13.07037 18.65622,19.455 0.89728,-0.79039 0.0266,-2.82659 0.20393,-4.02822 -0.28695,-7.55698 -1.49127,-15.26654 -0.90878,-22.75795 5.60845,-6.64357 12.7184,-11.938012 18.64026,-18.330213 0.40124,-1.390755 -3.31085,-0.281111 -4.52638,-0.42519 -7.21314,0.517766 -14.46916,1.568802 -21.70183,1.272795 -3.32614,-2.026803 -5.57585,-5.575049 -8.41696,-8.239265 -3.54419,-3.559023 -6.62003,-7.773128 -10.43917,-10.967568 z"
       id="path1287"
       inkscape:connector-curvature="0"
       transform="matrix(0.93750002,0,0,0.93750002,72.314569,466.77116)" />
    <path
       style="opacity:1;fill:#ffffff;fill-opacity:1;stroke:none;stroke-width:8.33725643;stroke-linecap:round;stroke-linejoin:miter;stroke-miterlimit:4;stroke-dasharray:none;stroke-opacity:1"
       d="m 591.99447,267.43787 c -2.13111,1.42233 -2.41543,4.57302 -3.63936,6.703 -3.987,10.11024 -8.23864,20.17008 -11.41073,30.56549 0.76631,2.35724 4.12752,2.38229 5.95874,3.56233 18.38156,7.22298 36.70809,14.63255 55.3282,21.21612 1.54226,0.0821 1.64776,-2.42438 2.40494,-3.37606 4.56054,-11.44998 9.29689,-22.87858 12.94329,-34.65588 0.29697,-2.16309 -2.81443,-2.54397 -4.16105,-3.45361 -1.9027,-0.48597 -4.32237,-2.38473 -6.22908,-1.11846 -3.43196,5.82 -5.31125,12.46768 -8.15148,18.58901 -1.02578,1.57848 -1.22146,4.45055 -3.2201,5.04944 -4.55224,-1.20003 -9.24199,-2.90122 -13.02256,-5.71466 2.17951,-7.43257 5.32158,-14.6569 7.57847,-21.9935 -2.88034,-2.09411 -6.41453,-3.55428 -9.92655,-4.04042 -2.38742,1.31194 -2.7331,4.63457 -4.02117,6.84242 -2.03184,4.83272 -3.99659,9.69489 -5.9924,14.5436 -4.17077,-0.67924 -8.42943,-2.02274 -11.98596,-4.31184 -0.64979,-2.48326 1.29589,-5.01645 1.83451,-7.43715 1.86016,-5.45739 4.30792,-10.81073 5.71294,-16.37536 -1.6405,-2.50263 -5.13483,-2.79424 -7.67498,-4.00336 -0.76126,-0.21674 -1.5249,-0.57137 -2.32567,-0.59111 z"
       id="path1289"
       inkscape:connector-curvature="0"
       transform="matrix(0.93750002,0,0,0.93750002,72.314569,466.77116)" />
    <path
       style="opacity:1;fill:#ffffff;fill-opacity:1;stroke:none;stroke-width:8.33725643;stroke-linecap:round;stroke-linejoin:miter;stroke-miterlimit:4;stroke-dasharray:none;stroke-opacity:1"
       d="m 563.01964,331.78033 c -2.67438,2.04896 -4.49637,5.26183 -6.72369,7.8318 -1.08264,1.07994 -2.29781,2.92746 -0.56526,4.06885 5.53396,5.33764 11.99124,9.83215 17.43867,15.1466 -2.68264,5.07682 -6.78002,9.36277 -10.3115,13.8996 -1.51528,1.66617 -2.86722,3.64675 -4.65415,4.97893 -6.91647,-4.20874 -12.88276,-9.88689 -19.70661,-14.17979 -2.50913,0.62965 -3.82458,3.53025 -5.63854,5.21093 -1.07547,1.71087 -3.24484,3.23953 -3.48405,5.27657 4.44941,5.27026 10.43675,9.0079 15.58028,13.56063 11.80035,9.36184 23.23124,19.23433 35.50351,27.97748 1.51116,1.17162 2.37348,-1.66359 3.40364,-2.31792 2.0945,-2.73857 4.72804,-5.33018 5.95937,-8.54269 -6.36331,-6.34301 -13.9481,-11.49617 -20.215,-17.85227 2.47995,-4.7695 6.50223,-8.63286 9.71266,-12.93402 1.74712,-1.64228 2.81064,-4.3244 4.9807,-5.36115 2.38203,0.10627 4.02892,2.56547 6.06538,3.62706 5.35064,3.79183 10.28821,8.26825 15.823,11.74013 2.30265,-0.59214 3.44849,-3.32241 5.08863,-4.89632 1.26415,-1.94442 3.45662,-3.69712 3.93143,-5.97119 -5.32423,-5.45342 -11.73814,-9.79932 -17.55509,-14.73006 -11.0964,-8.65818 -21.77093,-17.89833 -33.2771,-26.01013 -0.42085,-0.22737 -0.86158,-0.51558 -1.35628,-0.52304 z"
       id="path1291"
       inkscape:connector-curvature="0"
       transform="matrix(0.93750002,0,0,0.93750002,72.314569,466.77116)" />
    <path
       style="opacity:1;fill:#ffffff;fill-opacity:1;stroke:none;stroke-width:8.33725643;stroke-linecap:round;stroke-linejoin:miter;stroke-miterlimit:4;stroke-dasharray:none;stroke-opacity:1"
       d="m 509.20001,392.73294 c -9.30757,2.10419 -17.65829,7.82592 -23.79959,15.05526 -4.85391,5.63306 -7.99172,12.85104 -7.70513,20.37182 -0.34276,13.84335 8.17124,27.32325 20.31581,33.727 10.01259,5.35425 22.339,3.11562 31.68216,-2.603 5.66711,-3.31503 10.94466,-7.63457 15.08377,-12.61685 -2.51511,-2.72178 -4.57941,-6.28193 -7.89126,-8.0567 -4.2005,2.29632 -7.29125,6.33528 -11.67248,8.44647 -3.22865,1.9956 -6.89406,3.23578 -10.7286,2.80189 -4.28514,0.52295 -8.47819,-1.09671 -11.58442,-4.00508 -7.16125,-5.85109 -12.23219,-15.75771 -9.38455,-25.01369 2.7489,-8.48885 11.11123,-13.21161 18.88887,-16.39604 1.4315,-0.25287 2.05185,-1.38007 1.40282,-2.6893 -0.80632,-3.04119 -1.69408,-6.18307 -2.88663,-9.02868 -0.57347,0.007 -1.14753,-0.0127 -1.72077,0.007 z"
       id="path1293"
       inkscape:connector-curvature="0"
       transform="matrix(0.93750002,0,0,0.93750002,72.314569,466.77116)" />
    <path
       style="opacity:1;fill:#ffffff;fill-opacity:1;stroke:none;stroke-width:8.33725643;stroke-linecap:round;stroke-linejoin:miter;stroke-miterlimit:4;stroke-dasharray:none;stroke-opacity:1"
       d="m 425.20178,434.65105 c -6.04031,1.31276 -12.15032,2.88231 -17.8247,5.31226 -1.2615,12.6592 -1.3284,25.46284 -1.90517,38.18486 -0.27021,10.57391 -0.81438,21.16469 -0.46789,31.73783 3.75442,-0.36742 7.54849,-2.08452 11.25525,-3.13479 1.65535,-0.58492 4.36995,-1.1665 3.56132,-3.56218 0,-4.90525 0,-9.81051 0,-14.71576 5.99053,-2.38348 12.41819,-3.47755 18.60969,-5.24677 3.46943,4.6298 6.04205,10.06496 10.18505,14.13068 2.65769,0.67613 5.45077,-0.88835 8.08169,-1.29252 2.13349,-0.75028 4.81487,-0.97646 6.3523,-2.68671 -11.32179,-18.82159 -22.85767,-37.53151 -34.93506,-55.87818 -0.8698,-0.86632 -1.49726,-2.79304 -2.91248,-2.84872 z m -4.14123,17.70751 c 3.80934,6.1254 7.99172,12.10766 11.0295,18.65881 0.62433,1.78834 -2.16123,2.03246 -3.24767,2.5971 -2.96005,0.62171 -6.01207,2.35708 -9.06229,1.85606 -1.33033,-2.02844 -0.42251,-4.85395 -0.77335,-7.16226 0.0438,-6.05795 -0.19076,-12.15106 0.53295,-18.17801 0.50695,0.74277 1.01391,1.48554 1.52086,2.2283 z"
       id="path1295"
       inkscape:connector-curvature="0"
       transform="matrix(0.93750002,0,0,0.93750002,72.314569,466.77116)" />
    <path
       style="opacity:1;fill:#ffffff;fill-opacity:1;stroke:none;stroke-width:8.33725643;stroke-linecap:round;stroke-linejoin:miter;stroke-miterlimit:4;stroke-dasharray:none;stroke-opacity:1"
       d="m 319.08942,445.16785 c -1.61533,15.04626 -1.90621,30.21309 -2.7724,45.31816 -0.18233,6.69379 -0.82952,13.42555 -0.58902,20.1057 1.58062,1.94978 4.74177,1.00837 6.94514,1.46228 2.31236,-0.10758 4.94359,0.51787 7.09076,-0.37914 1.62324,-7.30235 0.92013,-15.0138 2.46182,-22.31319 1.77389,-1.24993 4.39081,-0.18204 6.44191,-0.70054 6.50831,-0.38274 13.45977,-0.88749 18.79409,-5.08995 5.58798,-3.67337 8.39826,-10.35131 8.24627,-16.90356 0.23112,-5.35091 -1.26057,-10.99721 -5.48459,-14.57789 -4.76192,-4.99525 -11.73165,-7.22819 -18.53053,-6.98007 -7.51402,-0.0642 -15.19038,-0.27765 -22.60345,0.0582 z m 16.87512,11.06052 c 4.64483,0.1385 10.40064,0.0841 13.17853,4.57982 3.94553,5.90469 -0.26283,15.49531 -7.67584,15.49558 -2.79992,-0.0483 -5.8823,0.75739 -8.54269,-0.0896 -1.04929,-5.56969 -0.18904,-11.38624 0.32965,-16.99144 0.0798,-1.4399 0.40785,-3.45463 2.3562,-2.99349 l 0.35329,-8.6e-4 z"
       id="path1297"
       inkscape:connector-curvature="0"
       transform="matrix(0.93750002,0,0,0.93750002,72.314569,466.77116)" />
    <path
       style="opacity:1;fill:#ffffff;fill-opacity:1;stroke:none;stroke-width:8.33725643;stroke-linecap:round;stroke-linejoin:miter;stroke-miterlimit:4;stroke-dasharray:none;stroke-opacity:1"
       d="m 257.17345,426.70206 c -2.99435,1.42896 -4.51762,4.87928 -6.74,7.22182 -12.02405,15.81462 -24.33633,31.44644 -35.63653,47.78693 0.13608,1.42051 2.41515,1.64697 3.43982,2.38168 3.25099,1.17816 6.56734,3.1437 10.05752,3.1503 3.80311,-4.06655 6.52954,-9.16729 10.7348,-12.82265 3.20004,-0.0898 6.31453,1.73516 9.42161,2.53851 2.58207,0.90108 5.14274,1.83897 7.63792,2.95469 0.47285,6.10479 -0.0925,12.41546 1.18567,18.40376 4.06619,1.91314 8.31042,3.7301 12.68134,4.80127 1.73482,-0.0186 0.81908,-2.64587 1.28779,-3.71272 1.78111,-21.92174 2.97671,-43.8964 3.56863,-65.8834 -5.58112,-2.73204 -11.61508,-5.13259 -17.63857,-6.82019 z m 3.26145,15.43699 c 0.39507,6.31187 -0.5126,12.74896 -0.86439,19.08206 -0.53688,1.99642 0.23588,4.7394 -1.27343,6.31335 -3.20494,0.25152 -6.19606,-1.80883 -9.19671,-2.70481 -0.85613,-0.60134 -2.86959,-0.77245 -3.02535,-1.88622 4.24403,-7.22038 8.97721,-14.2193 14.23236,-20.74062 0.036,-0.0297 0.0762,-0.0668 0.12752,-0.0638 z"
       id="path1299"
       inkscape:connector-curvature="0"
       transform="matrix(0.93750002,0,0,0.93750002,72.314569,466.77116)" />
    <path
       style="opacity:1;fill:#ffffff;fill-opacity:1;stroke:none;stroke-width:8.33725643;stroke-linecap:round;stroke-linejoin:miter;stroke-miterlimit:4;stroke-dasharray:none;stroke-opacity:1"
       d="m 98.329752,315.07926 c -1.151894,0.87464 -0.05979,3.04673 -0.293995,4.32438 0.521794,7.25758 1.112246,14.51011 1.663204,21.76554 -6.00322,6.77533 -13.130611,12.46895 -19.649736,18.73895 2.978296,1.01107 6.871243,0.16863 10.215862,0.13472 5.58427,-0.36949 11.164873,-0.98854 16.768493,-0.91024 6.09856,6.25651 12.05231,12.65143 17.97204,19.07672 1.00953,-2.97005 0.17426,-6.85804 0.16545,-10.19539 -0.31062,-5.60747 -0.95718,-11.20418 -0.94096,-16.82515 6.28666,-5.98679 13.09193,-11.56453 18.96987,-17.91087 -1.03916,-1.17954 -3.2564,-0.16507 -4.65565,-0.39809 -7.23974,0.39013 -14.5058,1.4187 -21.73156,1.43211 -6.39085,-6.14456 -11.88618,-13.24583 -18.385648,-19.23354 z"
       id="path1301"
       inkscape:connector-curvature="0"
       transform="matrix(0.93750002,0,0,0.93750002,72.314569,466.77116)" />
    <path
       style="opacity:1;fill:#ffffff;fill-opacity:1;stroke:none;stroke-width:8.33725643;stroke-linecap:round;stroke-linejoin:miter;stroke-miterlimit:4;stroke-dasharray:none;stroke-opacity:1"
       d="m 60.10221,177.04081 c -7.36332,-0.0455 -14.424681,4.31756 -17.557579,10.99675 -3.655521,7.12093 -2.360478,15.4414 -2.612187,23.1411 0.34334,4.55493 -0.219654,9.5397 1.884068,13.73275 2.00296,1.88108 5.213376,0.54042 7.654364,0.85025 19.168991,-0.74309 38.386016,-0.53633 57.529954,-1.70245 1.6505,-1.64281 0.54431,-4.54456 0.89549,-6.64009 -0.13162,-2.58276 0.13202,-5.37734 -0.73522,-7.7827 -7.64424,0 -15.288483,0 -22.932731,0 -0.877291,-9.47339 -1.286479,-20.41895 -8.846172,-27.30381 -3.952703,-4.02799 -9.840838,-5.22734 -15.279987,-5.2918 z m 1.018505,15.27413 c 4.51786,-0.0703 9.025089,2.89694 9.85675,7.49661 0.638823,3.02055 1.336979,6.4348 0.408436,9.41815 -5.300103,1.26173 -10.901414,0.78409 -16.324382,1.16914 -1.721104,0.29334 -4.014502,-0.33749 -3.68726,-2.53662 -0.07115,-4.91826 -0.575805,-11.25522 4.291164,-14.20392 1.642392,-0.95453 3.566235,-1.36466 5.455292,-1.34336 z"
       id="path1303"
       inkscape:connector-curvature="0"
       transform="matrix(0.93750002,0,0,0.93750002,72.314569,466.77116)" />
    <path
       style="opacity:1;fill:#ffffff;fill-opacity:1;stroke:none;stroke-width:8.33725643;stroke-linecap:round;stroke-linejoin:miter;stroke-miterlimit:4;stroke-dasharray:none;stroke-opacity:1"
       d="m 79.286639,91.938773 c -12.131989,0.0058 -23.516109,8.088357 -27.818456,19.380027 -4.037785,10.14602 -3.636771,22.74693 3.552704,31.42976 5.895798,8.3076 15.724761,13.02825 25.589291,14.57358 7.998097,0.46317 16.78721,0.51438 23.522982,-4.50917 9.60416,-6.24191 14.73019,-17.95662 14.08945,-29.24711 0.27404,-7.17994 -3.23079,-13.99092 -7.70699,-19.38262 C 102.48457,96.061473 90.620903,91.768924 79.286639,91.938773 Z M 78.4353,108.15816 c 9.717335,-0.007 20.604014,3.49037 25.7892,12.29272 3.57886,6.23433 1.13701,14.70601 -4.875381,18.50456 -4.725437,3.31734 -10.90502,2.59336 -16.354674,2.3679 -8.312853,-1.48569 -17.375298,-5.71085 -20.798355,-13.97299 -2.793444,-7.11367 1.559019,-15.8183 8.837384,-18.09872 2.389005,-0.8256 4.895033,-1.08031 7.401826,-1.09347 z"
       id="path1305"
       inkscape:connector-curvature="0"
       transform="matrix(0.93750002,0,0,0.93750002,72.314569,466.77116)" />
    <path
       style="opacity:1;fill:#ffffff;fill-opacity:1;stroke:none;stroke-width:8.33725643;stroke-linecap:round;stroke-linejoin:miter;stroke-miterlimit:4;stroke-dasharray:none;stroke-opacity:1"
       d="m 119.39954,-14.195133 c -2.97178,3.638128 -6.00034,7.5005514 -7.88609,11.7843264 4.10788,5.6449695 9.51893,10.2862863 14.25136,15.4198836 6.08201,6.481037 12.77797,12.443656 18.35113,19.371281 -0.59187,0.380473 -2.43014,-0.98658 -3.36091,-1.203773 -12.8692,-5.529877 -25.42556,-11.86265 -38.57529,-16.709678 -2.280113,-1.159912 -3.458024,0.782916 -4.502358,2.581893 -1.811493,3.083585 -4.787441,5.693332 -5.74646,9.198125 0.866013,2.758498 3.71745,4.476123 5.407075,6.745786 9.122303,9.971061 18.998723,19.42318 27.811523,29.574 -8.85112,-3.166793 -17.2922,-7.588103 -25.97327,-11.267759 -6.322271,-2.600755 -12.425597,-5.981331 -18.958997,-7.952002 -3.031798,1.968156 -4.318628,5.767809 -6.403487,8.616317 -0.465897,1.31236 -2.215488,2.649541 -1.847093,4.052096 4.927669,3.129535 10.803307,4.483039 16.106739,6.881284 15.529928,5.940628 30.923648,12.296586 46.608868,17.798933 2.29131,-0.737132 3.4251,-3.510367 4.97275,-5.219189 1.72791,-2.553632 3.50707,-5.189863 4.88831,-7.886954 -9.83154,-12.183353 -21.33448,-22.910102 -31.69429,-34.62486 0.42295,-0.461562 2.06552,0.594865 2.81511,0.750522 13.15923,5.381789 25.85852,12.001375 39.41924,16.339165 2.41675,0.492405 3.38533,-2.821667 4.78318,-4.162774 1.60364,-2.704772 4.12252,-5.163436 4.90899,-8.210943 C 157.14981,27.422651 148.24159,18.169767 139.97759,8.4237374 133.19345,0.89695675 126.80612,-7.0192718 119.67183,-14.213229 Z"
       id="path1307"
       inkscape:connector-curvature="0"
       transform="matrix(0.93750002,0,0,0.93750002,72.314569,466.77116)" />
    <path
       style="opacity:1;fill:#ffffff;fill-opacity:1;stroke:none;stroke-width:8.33725643;stroke-linecap:round;stroke-linejoin:miter;stroke-miterlimit:4;stroke-dasharray:none;stroke-opacity:1"
       d="m 177.475,-61.246272 c -7.47336,4.488001 -14.12461,10.308174 -21.06513,15.585466 -3.69546,3.083627 -7.78173,5.982183 -11.10739,9.335162 11.03655,15.482147 23.0558,30.2440505 34.73047,45.2470454 2.12918,2.2535776 3.62079,5.3310536 6.15535,7.1128996 2.34439,-0.123067 3.86435,-2.704154 5.86134,-3.726165 9.03951,-7.0973789 18.47122,-13.7548134 27.02724,-21.4374571 1.61077,-1.2416739 -1.05919,-2.6788089 -1.50917,-3.8485179 -1.65707,-1.675662 -2.81211,-4.253705 -4.89569,-5.357664 -4.51704,1.826823 -8.07659,5.524073 -12.12629,8.187511 -3.27809,2.1919225 -6.36437,5.0867415 -9.93184,6.6437137 -3.58769,-3.3775801 -6.81648,-7.3262367 -9.25099,-11.6068187 5.88405,-5.239226 12.4875,-9.77771 18.14438,-15.194855 -0.96497,-3.269573 -3.75744,-5.756781 -5.88441,-8.343641 -1.71675,-1.909566 -3.5252,1.253529 -5.07106,1.893843 -5.09066,3.528611 -9.87437,7.851118 -15.26888,10.76078 -3.18288,-2.726825 -6.06055,-6.069751 -8.02223,-9.772306 3.25984,-3.922521 7.8237,-6.675754 11.64607,-10.051356 2.31686,-2.148436 5.34226,-3.795228 7.23418,-6.287808 -0.54834,-3.086117 -3.16126,-5.442727 -4.9762,-7.889536 -0.49326,-0.451405 -0.97685,-1.165867 -1.68975,-1.250296 z"
       id="path1309"
       inkscape:connector-curvature="0"
       transform="matrix(0.93750002,0,0,0.93750002,72.314569,466.77116)" />
    <path
       style="opacity:1;fill:#ffffff;fill-opacity:1;stroke:none;stroke-width:8.33725643;stroke-linecap:round;stroke-linejoin:miter;stroke-miterlimit:4;stroke-dasharray:none;stroke-opacity:1"
       d="m 240.62059,-92.302058 c -10.50414,0.576891 -19.93279,5.99446 -29.05669,10.741695 -1.62736,1.267685 -4.33344,1.943041 -5.00464,4.048169 7.32114,17.78336 15.43623,35.266362 23.34893,52.805435 1.40546,2.075769 1.65118,5.318203 3.85774,6.709035 3.57783,-0.360757 6.64281,-2.844696 9.96217,-4.121568 1.27106,-0.536016 3.45159,-1.573534 2.14656,-3.266156 -2.79872,-7.384803 -6.66824,-14.41023 -8.83607,-22.001576 1.28775,-1.800588 4.08292,-2.13893 6.0757,-2.902134 3.55645,-1.243799 7.0677,0.828137 9.27167,3.548396 4.36529,4.454668 7.76153,9.939222 12.66668,13.819614 2.76374,0.704904 5.35974,-1.524739 7.9128,-2.303272 1.91771,-1.116824 4.58062,-1.63413 5.91629,-3.449302 -2.08343,-3.749949 -5.52462,-6.721229 -8.16182,-10.122146 -4.30217,-4.725849 -8.27344,-10.562698 -14.82347,-12.260835 -2.12271,-0.862884 -0.0879,-3.356122 0.41791,-4.660824 4.89182,-7.8848 1.93141,-19.015525 -5.7991,-23.896091 -2.91083,-1.92432 -6.41773,-2.824307 -9.89466,-2.68844 z m -4.54881,12.99671 c 6.97354,-0.49493 11.33303,9.047266 6.79951,14.19272 -2.67455,3.203651 -6.61878,5.514431 -10.60727,6.433298 -2.21552,-1.042557 -2.55829,-4.117883 -3.78865,-6.033507 -1.50678,-3.322351 -2.80984,-6.720203 -4.13363,-10.119534 3.34482,-2.431401 7.53604,-4.19584 11.73004,-4.472977 z"
       id="path1311"
       inkscape:connector-curvature="0"
       transform="matrix(0.93750002,0,0,0.93750002,72.314569,466.77116)" />
    <path
       style="opacity:1;fill:#ffffff;fill-opacity:1;stroke:none;stroke-width:8.33725643;stroke-linecap:round;stroke-linejoin:miter;stroke-miterlimit:4;stroke-dasharray:none;stroke-opacity:1"
       d="m 319.54438,-113.5347 c -12.33789,1.69808 -24.70444,3.56242 -36.84282,6.33679 -0.96827,1.76818 0.37435,4.14546 0.30245,6.07226 3.05453,18.804983 5.70354,37.687313 9.30269,56.396046 0.54493,1.278284 0.49574,4.475593 2.68847,3.578419 13.09594,-2.054107 26.23589,-4.022409 39.23309,-6.583956 1.74818,-1.032127 0.24164,-3.53442 0.32916,-5.097696 -0.59795,-2.072257 -0.43395,-4.803165 -1.92585,-6.432433 -8.71009,0.06383 -17.26768,2.694126 -25.98136,2.778052 -1.69856,-0.446615 -0.93139,-3.036848 -1.55451,-4.298102 -0.57245,-3.396012 -1.06843,-6.802379 -1.3976,-10.23412 7.68957,-1.83786 15.64958,-2.961562 23.25414,-4.832297 0.28773,-3.708862 -0.0246,-7.751328 -1.62513,-11.112217 -7.8822,-0.100077 -15.67434,2.467393 -23.56176,2.201591 -1.30585,-1.013982 -0.82034,-3.412629 -1.42243,-4.904011 -0.11242,-2.494051 -1.51943,-5.183846 -0.65766,-7.599818 8.03359,-2.058361 16.44449,-2.853788 24.36571,-5.315698 1.25512,-1.56335 -0.15335,-3.96386 -0.12453,-5.75426 -0.41253,-1.83376 -0.6335,-3.86537 -1.43425,-5.50789 -0.9826,0.10311 -1.96521,0.20623 -2.94781,0.30934 z"
       id="path1313"
       inkscape:connector-curvature="0"
       transform="matrix(0.93750002,0,0,0.93750002,72.314569,466.77116)" />
  </g>
</svg>
